<svg id="Слой_1" data-name="Слой 1" xmlns="http://www.w3.org/2000/svg" viewBox="0 0 1440.91 902.41"><defs><style>.cls-1{fill:#ffe17d;}.cls-2{fill:#404040;}.cls-3,.cls-4{fill:none;stroke-miterlimit:10;}.cls-3{stroke:#ffe17d;stroke-width:2px;}.cls-4{stroke:#404040;stroke-width:0.5px;}</style></defs><rect class="cls-1" x="84.1" width="1273.6" height="902.41"/><rect class="cls-2" y="0.4" width="1440.91" height="900.94"/><rect class="cls-1" x="532.85" y="47.31" width="380.75" height="808"/><rect class="cls-3" x="519.04" y="32.25" width="408.37" height="840.81"/><path class="cls-2" d="M665.56,506q2.88,0,3.93-1.11a3.38,3.38,0,0,0,1-2.34,3.1,3.1,0,0,0-.79-2.23,3,3,0,0,0-2.27-.84,4.35,4.35,0,0,0-2.24.71,4.05,4.05,0,0,0-1.68,2.22l-.2,0a1,1,0,0,1-.27,0c0-.21,0-.38,0-.52a13.59,13.59,0,0,1,.14-1.93,4.7,4.7,0,0,1,1.59-.69,10,10,0,0,1,2.8-.37,5.63,5.63,0,0,1,3.8,1.1,3.39,3.39,0,0,1,1.24,2.63,2.6,2.6,0,0,1-.6,1.73,7.16,7.16,0,0,1-2,1.52q3.79,1.05,3.8,4.3a4.38,4.38,0,0,1-1.91,3.59,7.3,7.3,0,0,1-4.53,1.45,8.82,8.82,0,0,1-4-.8c-1.06-.53-1.59-1.18-1.59-1.93a1.28,1.28,0,0,1,.31-.88,1.07,1.07,0,0,1,.85-.37,1.15,1.15,0,0,1,1.18,1,3.62,3.62,0,0,0,.47,1.16,2.91,2.91,0,0,0,1.14.8,4.06,4.06,0,0,0,4.72-.79,4.27,4.27,0,0,0,1.17-3.06,3.64,3.64,0,0,0-1-2.83,4,4,0,0,0-2.81-.95c-.12,0-.5,0-1.13.07l-1.08.05Z" transform="translate(0.91 1.4)"/><path class="cls-2" d="M675.34,514.66a.73.73,0,0,1,.2-.13,4.54,4.54,0,0,1,.71-.1,4.74,4.74,0,0,0,1.46-.22,1.12,1.12,0,0,0,.17-.68v-4l0-1.46V505l-.06-3.48a3.43,3.43,0,0,0-.16-1.41,2.25,2.25,0,0,0-1.3-.26,6.16,6.16,0,0,1-.82-.08.24.24,0,0,1-.16-.22.6.6,0,0,1,.06-.23.45.45,0,0,1,.2-.06H676a14.41,14.41,0,0,0,1.49.08l.9,0,2.15.05c1.07,0,1.91,0,2.51,0l1.22,0c.19,0,.65,0,1.39.05l1.73,0,.21,0,1,0,.12.06a1,1,0,0,1,.09.21,3.51,3.51,0,0,1-.06.53c0,.23,0,.38,0,.43,0,.85,0,1.57.08,2.15a.11.11,0,0,1-.07.1.61.61,0,0,1-.24,0,5.89,5.89,0,0,1-.36-.81,8.87,8.87,0,0,0-.67-1.36A2.13,2.13,0,0,0,687,500a1.72,1.72,0,0,0-.71-.1l-1.11,0h-.52l-3.48.07h-.31c-.44,0-.71.06-.8.17a4,4,0,0,0-.21,1.72c0,.1,0,1.07.06,2.93v1.69a1,1,0,0,0,.3,0H681l.86,0,.25,0c.88,0,2-.05,3.39-.05a1.44,1.44,0,0,0,.76-.25,2.62,2.62,0,0,0,.27-1.15c.06-.62.2-1,.41-1a.22.22,0,0,1,.32.25,2.22,2.22,0,0,1,0,.28c0,.3-.06,1.24-.06,2.83,0,.42,0,.89.07,1.41s.07.8.07.84a2.27,2.27,0,0,1,0,.3.41.41,0,0,1-.16,0h-.08a4.26,4.26,0,0,1-.38-1.06,3.32,3.32,0,0,0-.67-1.54,1.63,1.63,0,0,0-1.12-.31l-.63,0-1.34,0h-.79a20.55,20.55,0,0,0-2.22.07v5.45a3.71,3.71,0,0,0,.16,1.44,1.12,1.12,0,0,0,.9.27h1.51c.44,0,1,0,1.64,0a15.68,15.68,0,0,0,3.13-.2,2.65,2.65,0,0,0,1.29-.72,8.69,8.69,0,0,0,1.27-2.21c.16-.33.31-.5.47-.5a.4.4,0,0,1,.24.1,12,12,0,0,0-.4,1.58,12.5,12.5,0,0,0-.16,1.74,1.14,1.14,0,0,1-.2.68h-.27l-3.42,0h-1.54l-3.66,0h-2c-1.46.07-2.54.1-3.23.1a.38.38,0,0,1-.25-.06.25.25,0,0,1-.07-.18Z" transform="translate(0.91 1.4)"/><path class="cls-2" d="M699.06,500.89a51.06,51.06,0,0,0-2.6,7.15l-.49,1.4-1.22,3.8a1.74,1.74,0,0,0-.16.56,1.19,1.19,0,0,0,.11.36,6.13,6.13,0,0,0,1.44.21c.18,0,.48,0,.9.08a.25.25,0,0,1,.13.19.82.82,0,0,1,0,.18l-.84,0c-.66,0-1.42,0-2.27-.07l-.86,0-1.14,0h-.34a7.45,7.45,0,0,1-.76,0,.79.79,0,0,1,.05-.29.59.59,0,0,1,.3-.1,3.86,3.86,0,0,0,1.84-.28,3.25,3.25,0,0,0,.91-1.38c.33-.74.85-2.13,1.57-4.18l.59-1.54,1.15-3.21.8-2.14c.53-1.39.9-2.44,1.12-3.16H700q.09,0,2.06,5.28t2.89,8c.33.89.56,1.45.67,1.68a1.34,1.34,0,0,0,.32.44,3.38,3.38,0,0,0,.8.25,3.59,3.59,0,0,1,.5.15l.5.17a.51.51,0,0,1,.05.2.82.82,0,0,1,0,.18l-.55,0-2.2,0-1.36,0-1.31,0a3.27,3.27,0,0,1-1.1-.11.78.78,0,0,1,.07-.33,3.75,3.75,0,0,1,1.24-.15,3,3,0,0,0,1.06-.15,1.13,1.13,0,0,0,.07-.33,4.82,4.82,0,0,0-.32-1.14c-.13-.4-.26-.79-.37-1.17,0-.12-.48-1.32-1.31-3.6s-1.54-4.13-2.11-5.56l-.43-1.14A1.76,1.76,0,0,0,699.06,500.89Z" transform="translate(0.91 1.4)"/><path class="cls-2" d="M708.64,514.66a.73.73,0,0,1,.2-.13,4.54,4.54,0,0,1,.71-.1,4.89,4.89,0,0,0,1.47-.22,1.2,1.2,0,0,0,.17-.68l0-.86,0-3.1,0-1.46V505l-.06-3.48a3.43,3.43,0,0,0-.16-1.41,2.25,2.25,0,0,0-1.3-.26,6.16,6.16,0,0,1-.82-.08.25.25,0,0,1-.16-.22.6.6,0,0,1,.06-.23.45.45,0,0,1,.2-.06h.41a14.41,14.41,0,0,0,1.49.08l.9,0,2.15.05c1.07,0,1.91,0,2.51,0l1.22,0c.19,0,.65,0,1.39.05l1.73,0,.21,0,1,0,.13.06a.9.9,0,0,1,.08.21,4.93,4.93,0,0,1,0,.53,3.84,3.84,0,0,0-.06.43,21.49,21.49,0,0,0,.09,2.15.14.14,0,0,1-.08.1.59.59,0,0,1-.23,0,5.89,5.89,0,0,1-.36-.81,10.09,10.09,0,0,0-.68-1.36,2,2,0,0,0-.48-.61,1.72,1.72,0,0,0-.71-.1l-1.11,0H718l-3.48.07h-.3c-.45,0-.72.06-.81.17a4,4,0,0,0-.21,1.72c0,.1,0,1.07.06,2.93v1.69a1,1,0,0,0,.3,0h.81l.86,0,.25,0c.88,0,2-.05,3.39-.05.43-.07.69-.15.76-.25a2.62,2.62,0,0,0,.27-1.15c.07-.62.2-1,.41-1a.73.73,0,0,1,.3.06,1.37,1.37,0,0,1,0,.19s0,.15,0,.28c-.05.3-.07,1.24-.07,2.83,0,.42,0,.89.07,1.41s.07.8.07.84a1.3,1.3,0,0,1,0,.3.37.37,0,0,1-.16,0h-.08a4.26,4.26,0,0,1-.38-1.06,3.45,3.45,0,0,0-.66-1.54,1.68,1.68,0,0,0-1.13-.31l-.62,0-1.35,0h-.79a20.55,20.55,0,0,0-2.22.07v5.45a3.71,3.71,0,0,0,.16,1.44,1.12,1.12,0,0,0,.9.27h1.51c.44,0,1,0,1.64,0a15.68,15.68,0,0,0,3.13-.2,2.65,2.65,0,0,0,1.29-.72,8.4,8.4,0,0,0,1.27-2.21c.16-.33.31-.5.47-.5a.4.4,0,0,1,.24.1,14,14,0,0,0-.4,1.58,14.24,14.24,0,0,0-.16,1.74,1.14,1.14,0,0,1-.19.68h-.27l-3.43,0h-1.54l-3.65,0h-2c-1.46.07-2.54.1-3.23.1a.4.4,0,0,1-.25-.06.24.24,0,0,1-.06-.18Z" transform="translate(0.91 1.4)"/><path class="cls-2" d="M724.89,515v-.27a2.63,2.63,0,0,1,1-.29,4.86,4.86,0,0,0,1.1-.22.68.68,0,0,0,.32-.33,2,2,0,0,0,.18-.82l0-.92v-.86l0-1c0-.41,0-.93,0-1.55s0-1,0-1v-3.33c0-.53,0-1.1,0-1.71s0-1,0-1.28a8.77,8.77,0,0,0,0-1.22.39.39,0,0,0-.19-.24,3.15,3.15,0,0,0-.87-.14l-.8-.08a.61.61,0,0,1-.06-.22c0-.07,0-.15,0-.24l.45,0h1.15c.81,0,1.68,0,2.59-.1.44,0,1.12-.06,2-.08a.76.76,0,0,1,0,.21.29.29,0,0,1-.06.19.37.37,0,0,1-.19.09,4.36,4.36,0,0,0-1.88.39,2,2,0,0,0-.29,1.34c0,1.32,0,2.67.06,4.07l0,1.15a12.43,12.43,0,0,0,1.59.12l.48,0,1.8,0,1.18,0,3.1-.1a3.44,3.44,0,0,0,.69-.05c.05-1.41.07-2.77.07-4.09a15.18,15.18,0,0,0-.08-2.25.41.41,0,0,0-.17-.28,11.82,11.82,0,0,0-1.27-.2,2.28,2.28,0,0,1-.39-.06,1.33,1.33,0,0,1-.06-.42l.52-.07.81.05c.74,0,1.48.05,2.23.05.48,0,1.28,0,2.39-.12a2.75,2.75,0,0,1-.06.44,3.81,3.81,0,0,1-1.11.23,2.22,2.22,0,0,0-.7.14.82.82,0,0,0-.23.69c0,.08,0,.17,0,.27,0,.29,0,.48,0,.57v2.28l0,1.14,0,2.12,0,2c0,.4,0,1,0,1.86v1.65a3.59,3.59,0,0,0,.14,1.18.44.44,0,0,0,.25.25l1,.22a3.48,3.48,0,0,1,.88.29.37.37,0,0,1,.14.28l0,.15h-.06l-.16,0a15.75,15.75,0,0,0-2.79-.24c-.77,0-1.31,0-1.63,0s-1,.11-2,.26c0-.1,0-.18,0-.23s0-.13,0-.23a3,3,0,0,1,1.2-.3,1.56,1.56,0,0,0,1-.39.85.85,0,0,0,.23-.65v-1.76c0-.52,0-.81,0-.86,0-.69,0-1.7,0-3a.24.24,0,0,0-.13-.2,18.69,18.69,0,0,0-3.25,0c-.39,0-.68,0-.87,0l-1.23,0-1.72,0H729.9a.54.54,0,0,0-.38.11.62.62,0,0,0-.1.41v.85q0,.21-.06,2.31c0,.28,0,.52,0,.7a12.77,12.77,0,0,0,.12,2.22.55.55,0,0,0,.22.36,5.84,5.84,0,0,0,.95.25,6.77,6.77,0,0,1,.85.23l.07.13a.1.1,0,0,1,0,.09.33.33,0,0,1-.21.06h-.23l-.53,0c-.41,0-.93,0-1.55-.09-.39,0-.75,0-1.06,0-.52,0-1.35,0-2.5.08Z" transform="translate(0.91 1.4)"/><path class="cls-2" d="M751.68,499.19l-.11.43-1.51.34a2.28,2.28,0,0,0-.89.33,1.22,1.22,0,0,0-.29.72,18,18,0,0,0-.08,2.08c0,.39,0,1.1.09,2.14v.25l0,.49a24.3,24.3,0,0,1,3.24-.16c2.28,0,3.82.41,4.61,1.23a4.31,4.31,0,0,1,1.18,3.09,4.06,4.06,0,0,1-1.73,3.3,7,7,0,0,1-4.48,1.36h-1.82l-.56,0c-.58,0-1.1,0-1.55,0l-2.58,0c-.32,0-.59,0-.83,0a.71.71,0,0,1,0-.14c0-.17.11-.28.34-.33a9.15,9.15,0,0,0,1.76-.45,1,1,0,0,0,.3-.68,16.56,16.56,0,0,0,.09-2.17l0-1.43,0-5.32,0-2.36,0-.62a2.49,2.49,0,0,0-.14-1.06c-.1-.16-.36-.26-.79-.3a9.56,9.56,0,0,1-1.85-.33.52.52,0,0,1-.1-.33h1.27l.65,0,2.29,0C749.12,499.37,750.32,499.31,751.68,499.19Zm-2.79,7.51V508c0,3,0,4.64.11,5a1.46,1.46,0,0,0,.68.86,3.52,3.52,0,0,0,1.88.37,4.13,4.13,0,0,0,3.11-1.17,3.71,3.71,0,0,0,1.13-2.65,3.42,3.42,0,0,0-1.19-2.77,4.81,4.81,0,0,0-3.14-1A25,25,0,0,0,748.89,506.7Zm9,7.83a1.7,1.7,0,0,1,.55-.13,11.4,11.4,0,0,0,1.14-.13h.12c.51,0,.83-.19,1-.41a11.23,11.23,0,0,0,.19-3v-1.39l0-5.65,0-1.89c0-.43,0-.92-.07-1.48a1.66,1.66,0,0,0-.15-.33,4,4,0,0,0-1.54-.32,4.26,4.26,0,0,1-1-.15c-.09-.06-.14-.19-.15-.4l2.27,0,2,0,3.32-.07a1.4,1.4,0,0,1,0,.37c-.08,0-.35.07-.82.13a5.73,5.73,0,0,0-1.51.3q-.33.17-.33,2.55l0,7.35v1.18a15.18,15.18,0,0,0,.1,2.44.83.83,0,0,0,.53.55,2.91,2.91,0,0,0,1.07.2c.51,0,.8.08.86.2a1.25,1.25,0,0,1,0,.36l-1.65,0-1.07,0-1.68,0h-3.09Z" transform="translate(0.91 1.4)"/><path class="cls-2" d="M780.09,501A.85.85,0,0,0,779,499.8l-.39-.06-.39-.06a1.29,1.29,0,0,1-.06-.42l.54-.06,1.6.09c.19,0,.73,0,1.59,0q.54,0,2.22-.12a1.42,1.42,0,0,1-.06.44,3.48,3.48,0,0,1-1.11.23,1.37,1.37,0,0,0-.76.21c-.1.1-.15.39-.15.89v2.85l0,1.14v2.12l0,2.07,0,1.79a12.41,12.41,0,0,0,.15,2.92,2,2,0,0,0,1,.33,7.12,7.12,0,0,1,1.06.3.34.34,0,0,1,.18.32.32.32,0,0,1,0,.15h-.06l-.15,0a15.57,15.57,0,0,0-2.76-.24,25.43,25.43,0,0,0-3.67.3,1.29,1.29,0,0,1,0-.24,1.22,1.22,0,0,1,0-.22,2.89,2.89,0,0,1,1.19-.3c.8-.09,1.2-.43,1.2-1V511l0-.52,0-8.58-4.66,5.24c-.39.47-.89,1-1.49,1.7s-1.24,1.44-1.9,2.3l-1,1.28a4.47,4.47,0,0,0,.1,1.17c.06.22.14.36.23.4a4,4,0,0,0,.82.2,7.12,7.12,0,0,1,1.06.3.34.34,0,0,1,.18.32.41.41,0,0,1,0,.15h-.07l-.15,0a15.52,15.52,0,0,0-2.77-.24,25.54,25.54,0,0,0-3.67.3c0-.1,0-.18,0-.24s0-.12,0-.22a3,3,0,0,1,1.2-.3c.8-.09,1.21-.43,1.21-1l0-1.74,0-.46v-.52l0-1.24,0-1.45V503.6c0-1.33,0-2.21,0-2.65a2.75,2.75,0,0,0-.08-.81.37.37,0,0,0-.14-.19,4.57,4.57,0,0,0-.89-.15l-.39-.06-.39-.06a1.35,1.35,0,0,1-.06-.43,4.54,4.54,0,0,1,.53-.06l1.59.1c.2,0,.73,0,1.6,0q.54,0,2.22-.12a1.84,1.84,0,0,1,0,.44,3.62,3.62,0,0,1-1.11.23q-.66.06-.78.21a1.86,1.86,0,0,0-.13.89v2.85l0,1.14v2.12l0,2.07,0,2.31,2.25-2.72L775,506.8l2.26-2.55Q778.8,502.54,780.09,501Zm-8-5.2a1.06,1.06,0,0,1,.32-.78,1.11,1.11,0,0,1,.8-.32,1,1,0,0,1,.66.21,3.88,3.88,0,0,1,.69,1c.39.71.82,1.06,1.28,1.06s.89-.35,1.29-1.06a3.53,3.53,0,0,1,.64-.93,1,1,0,0,1,.72-.27,1,1,0,0,1,.76.33,1,1,0,0,1,.31.77,1.49,1.49,0,0,1-1.09,1.37,6.59,6.59,0,0,1-2.59.46,6.43,6.43,0,0,1-2.78-.5A1.51,1.51,0,0,1,772.06,495.75Z" transform="translate(0.91 1.4)"/><path class="cls-2" d="M675.48,530.2a29.54,29.54,0,0,0-3.84-.1l-3.28-.05a11.9,11.9,0,0,0-1.8.15,10.39,10.39,0,0,0-.09,1.14l0,2.9-.06,3.61-.05,3.16v.71a13.5,13.5,0,0,0,.08,1.95,1.16,1.16,0,0,0,.2.58,3.15,3.15,0,0,0,1,.3,4.12,4.12,0,0,1,.85.24c.05.05.08.09.08.13s-.09.16-.26.16h-.76c-.41,0-.93,0-1.54-.09-.4,0-.76-.06-1.07-.06l-2.5.09h-.56l0-.28a2.36,2.36,0,0,1,1-.3,2.65,2.65,0,0,0,1.32-.4,1.63,1.63,0,0,0,.28-1.16c0-.18,0-.43,0-.73v-2c0-.34,0-.82,0-1.45l0-.93,0-5.12,0-1.19a4.22,4.22,0,0,0-.11-1.38c-.07-.09-.4-.16-1-.22s-.72-.07-.8-.09a.49.49,0,0,1-.06-.22c0-.06,0-.14,0-.23l.56,0,5.45.13,1.78,0,.59,0h1l3.39-.08,1.84-.05q.63,0,2.22-.12a2.46,2.46,0,0,1-.06.44,3.31,3.31,0,0,1-1.11.23,2.34,2.34,0,0,0-.69.13.83.83,0,0,0-.24.7c0,.07,0,.16,0,.27q0,.86,0,1.92l0,2.73,0,3.08-.06,2.35v.71a13.5,13.5,0,0,0,.08,1.95,1.16,1.16,0,0,0,.2.58,3.25,3.25,0,0,0,1,.3,4.28,4.28,0,0,1,.86.24.24.24,0,0,1,.07.13c0,.11-.09.16-.27.16h-.75c-.42,0-.93,0-1.54-.09-.4,0-.75-.06-1.06-.06l-2.49.09h-.56v-.28a2.31,2.31,0,0,1,1-.3,2.68,2.68,0,0,0,1.31-.4,1.69,1.69,0,0,0,.28-1.19c0-.18,0-.41,0-.7l0-.74.05-3.2,0-1.66Z" transform="translate(0.91 1.4)"/><path class="cls-2" d="M680.82,544.63a.5.5,0,0,1,.21-.13,4.35,4.35,0,0,1,.71-.1,4.8,4.8,0,0,0,1.46-.22,1.2,1.2,0,0,0,.17-.68v-4l0-1.47V535l-.06-3.48a3.43,3.43,0,0,0-.16-1.41,2.36,2.36,0,0,0-1.31-.27,4.79,4.79,0,0,1-.81-.07.25.25,0,0,1-.16-.22.6.6,0,0,1,.06-.23.41.41,0,0,1,.19-.06h.42a14.45,14.45,0,0,0,1.49.07l.9,0,2.15,0c1.07,0,1.91,0,2.51,0l1.22,0,1.39,0h1.73l.21,0,1,0,.12.06a1,1,0,0,1,.09.21,3.41,3.41,0,0,1-.06.52,3.19,3.19,0,0,0,0,.44c0,.85,0,1.56.08,2.15a.13.13,0,0,1-.07.1.86.86,0,0,1-.24,0,6.18,6.18,0,0,1-.36-.82,9.47,9.47,0,0,0-.68-1.35,2,2,0,0,0-.47-.61,1.76,1.76,0,0,0-.71-.1l-1.11,0h-.53l-3.47.07h-.31c-.45,0-.71.06-.8.17a3.94,3.94,0,0,0-.21,1.72c0,.1,0,1.07.06,2.93v1.69a.92.92,0,0,0,.29,0h.82c.42,0,.71,0,.85,0h.26c.88,0,2,0,3.39,0a1.44,1.44,0,0,0,.75-.25,2.44,2.44,0,0,0,.28-1.15c.06-.62.2-1,.41-1a.72.72,0,0,1,.29.06.65.65,0,0,1,0,.19,1.76,1.76,0,0,1,0,.28c0,.3-.06,1.24-.06,2.83,0,.42,0,.89.07,1.41s.06.8.06.84a1.89,1.89,0,0,1,0,.29.32.32,0,0,1-.16.05h-.09a4.32,4.32,0,0,1-.37-1.06,3.55,3.55,0,0,0-.67-1.54,1.66,1.66,0,0,0-1.13-.31c-.11,0-.32,0-.62,0h-2.13a19.64,19.64,0,0,0-2.22.08v5.45a3.71,3.71,0,0,0,.16,1.44q.2.27.9.27l.74,0,.76,0,1.64,0a15.81,15.81,0,0,0,3.14-.2,2.65,2.65,0,0,0,1.28-.72,8.34,8.34,0,0,0,1.28-2.21c.15-.34.31-.5.46-.5a.45.45,0,0,1,.25.09,15.48,15.48,0,0,0-.41,1.59,12.5,12.5,0,0,0-.15,1.74,1.09,1.09,0,0,1-.2.67H695l-3.42,0H690l-3.66,0h-2c-1.46.06-2.54.1-3.23.1a.38.38,0,0,1-.25-.06.21.21,0,0,1-.07-.18Z" transform="translate(0.91 1.4)"/><path class="cls-2" d="M704.55,530.85a52.92,52.92,0,0,0-2.61,7.16l-.48,1.4-1.23,3.8a1.86,1.86,0,0,0-.15.56,1,1,0,0,0,.11.36,6.13,6.13,0,0,0,1.44.21l.9.07c.09.07.13.13.13.2a.82.82,0,0,1,0,.18h-.85c-.65,0-1.41,0-2.26-.06l-.86,0-1.14,0h-.35a7.27,7.27,0,0,1-.75,0,.76.76,0,0,1,.05-.29.56.56,0,0,1,.3-.1,3.86,3.86,0,0,0,1.84-.28,3.23,3.23,0,0,0,.91-1.39c.32-.73.85-2.13,1.57-4.18l.59-1.53,1.15-3.21.8-2.14c.52-1.39.89-2.44,1.11-3.16h.78c.07,0,.76,1.78,2.07,5.27s2.27,6.16,2.89,8c.33.89.56,1.45.67,1.67a1.12,1.12,0,0,0,.32.44,2.51,2.51,0,0,0,.8.25,4.15,4.15,0,0,1,.5.16l.5.17a.8.8,0,0,1,.05.2.54.54,0,0,1,0,.18h-.55l-2.19,0-1.37,0-1.3,0a3.27,3.27,0,0,1-1.1-.11.88.88,0,0,1,.06-.33,3.6,3.6,0,0,1,1.25-.15,3,3,0,0,0,1.06-.16,1.4,1.4,0,0,0,.07-.33,5.57,5.57,0,0,0-.32-1.13c-.14-.4-.26-.79-.38-1.17,0-.12-.47-1.32-1.3-3.6s-1.54-4.14-2.12-5.56l-.42-1.14A2.58,2.58,0,0,0,704.55,530.85Z" transform="translate(0.91 1.4)"/><path class="cls-2" d="M727.54,530.92a2.34,2.34,0,0,0-.14-.94,2.25,2.25,0,0,0-1-.21l-.39-.06a2.53,2.53,0,0,1-.39-.07,1.25,1.25,0,0,1-.06-.42l.53-.06,1.6.09c.2,0,.73,0,1.6,0q.54,0,2.22-.12a2.46,2.46,0,0,1-.06.44,3.78,3.78,0,0,1-1.11.23,1.41,1.41,0,0,0-.77.21c-.1.09-.15.39-.15.89v.57l0,2.28,0,1.13V537l0,2.07,0,1.79a13.61,13.61,0,0,0,.14,2.92,2,2,0,0,0,1,.33,6,6,0,0,1,1.06.3.33.33,0,0,1,.19.32.39.39,0,0,1,0,.14l-.06,0-.16,0a15.57,15.57,0,0,0-2.76-.24,25.43,25.43,0,0,0-3.67.3c0-.1,0-.18,0-.24s0-.12,0-.22a3,3,0,0,1,1.2-.31c.79-.08,1.19-.42,1.19-1V541l0-.52,0-8.59-4.66,5.25c-.39.47-.88,1-1.48,1.7s-1.25,1.44-1.91,2.3l-1,1.28a4.47,4.47,0,0,0,.1,1.17c.06.22.14.36.24.4a3.65,3.65,0,0,0,.81.2,6.23,6.23,0,0,1,1.07.3.35.35,0,0,1,.17.32.5.5,0,0,1,0,.14l-.08,0-.14,0a15.6,15.6,0,0,0-2.77-.24,25.43,25.43,0,0,0-3.67.3,2.27,2.27,0,0,1,0-.24,2,2,0,0,1,0-.22,3.14,3.14,0,0,1,1.19-.31c.81-.08,1.21-.42,1.21-1v-1.75l0-.45v-.52l0-1.25v-5.62c0-1.33,0-2.22,0-2.66a3.13,3.13,0,0,0-.08-.8.57.57,0,0,0-.15-.2,4.85,4.85,0,0,0-.88-.14l-.39-.06-.39-.06a1.11,1.11,0,0,1-.07-.43l.53-.06,1.6.09q.29,0,1.59,0,.54,0,2.22-.12a1.44,1.44,0,0,1,0,.44,3.78,3.78,0,0,1-1.11.23,1.39,1.39,0,0,0-.78.21,2,2,0,0,0-.13.89v2.85l0,1.13v4.2l0,2.3,2.26-2.71,1.71-1.93,2.25-2.55Q726.25,532.51,727.54,530.92Z" transform="translate(0.91 1.4)"/><path class="cls-2" d="M737.53,536.62a6.38,6.38,0,0,0,2.42-1,6,6,0,0,0,1.37-1.8,27.34,27.34,0,0,1,1.83-3.12,5.81,5.81,0,0,1,1.19-1.14,2.27,2.27,0,0,1,1.33-.47,1.65,1.65,0,0,1,1.15.42,1.22,1.22,0,0,1,.45.92,1.44,1.44,0,0,1-.29.83.93.93,0,0,1-.82.42,1.33,1.33,0,0,1-1.25-.93c-.13-.3-.27-.45-.41-.45a1.33,1.33,0,0,0-.63.33,12.21,12.21,0,0,0-1.73,2.69,16.65,16.65,0,0,1-1.22,2,3.82,3.82,0,0,1-1.75,1.2,4.3,4.3,0,0,1,1.71.3,4.77,4.77,0,0,1,1.33,1,42.3,42.3,0,0,1,3.18,4.29,11.36,11.36,0,0,0,1.33,1.66,2.48,2.48,0,0,0,1.43.62,3.68,3.68,0,0,1,.69.13.18.18,0,0,1,.1.17v.16a.12.12,0,0,1-.13.11c-.42,0-.95,0-1.6-.09-.4,0-.73,0-1,0a8.18,8.18,0,0,0-1.28.13c-.75-1.23-1.69-2.64-2.79-4.21a12.8,12.8,0,0,0-2.48-2.89,4,4,0,0,0-2.13-.58l0,1.81c0,.49,0,1.06,0,1.71s.05,1.62.05,2.64a.73.73,0,0,0,.37.72,3.12,3.12,0,0,0,1.18.28,1.83,1.83,0,0,1,.43.08.89.89,0,0,1,.07.27.27.27,0,0,1-.15.23h-.39c-.16,0-.55,0-1.17-.08s-1.08-.09-1.38-.09a8.31,8.31,0,0,0-1,.08c-.5.05-1.17.08-2,.08h-.36l0-.36a.22.22,0,0,1,.18-.14,5.86,5.86,0,0,0,1.94-.44.93.93,0,0,0,.24-.75v-3.44l0-1-.08-3.38,0-2.21,0-1.76a3,3,0,0,0-.2-1.38,1.31,1.31,0,0,0-.69-.18l-.19,0a8.08,8.08,0,0,0-.84-.07.35.35,0,0,1-.17-.3.54.54,0,0,1,0-.18l.64,0c2.24,0,3.79,0,4.63-.12a8,8,0,0,0,.95,0c.09.05.14.1.14.17a.5.5,0,0,1,0,.16,1.48,1.48,0,0,1-.55.12,2.69,2.69,0,0,0-1.36.4,1.28,1.28,0,0,0-.33,1v.23l0,4.59Z" transform="translate(0.91 1.4)"/><path class="cls-2" d="M748.84,544.43a.62.62,0,0,1,.31-.1h.57a5.7,5.7,0,0,0,1.11-.17,2,2,0,0,0,.73-.81,30,30,0,0,0,1.43-3.52c.25-.73.41-1.17.47-1.32.21-.49.4-1,.59-1.54l1.14-3.2c.18-.51.61-1.66,1.3-3.47.17-.45.38-1.06.62-1.83l.36,0h.42a17.34,17.34,0,0,1,.93,2.23q.23.65.72,1.89l1.85,5,1,2.72q.78,2.33,1,2.85a1.9,1.9,0,0,0,.45.7,1.61,1.61,0,0,0,.46.15,12.55,12.55,0,0,1,1.33.41.52.52,0,0,1,.05.21.82.82,0,0,1,0,.18l-.55,0-2.2,0-1.22,0-1.47,0h-.3l-.26,0h-.27a.61.61,0,0,1-.24-.07,1,1,0,0,1,.06-.33.56.56,0,0,1,.26-.08l1.28-.09a2.5,2.5,0,0,0,.76-.13,1.13,1.13,0,0,0,.07-.33,5.13,5.13,0,0,0-.31-1.14c-.15-.41-.28-.79-.39-1.16s-.54-1.57-1.29-3.62a6.22,6.22,0,0,0-.88-.08l-2.61,0h-.77a7.56,7.56,0,0,0-.91.06,4.6,4.6,0,0,0-.21.52l-1.08,3.36a17.29,17.29,0,0,0-.68,2.11,1.19,1.19,0,0,0,.11.36,5,5,0,0,0,.68.14l1.66.14c.09.08.14.14.14.2a1,1,0,0,1,0,.18h-.84c-.65,0-1.41,0-2.27-.06l-.85,0-.89,0-.6,0c-.2,0-.45,0-.76,0v-.07A.8.8,0,0,1,748.84,544.43Zm5.82-7.32c.87,0,1.86.07,3,.07.63,0,1.19,0,1.67-.06-.09-.32-.18-.61-.28-.89l-.88-2.34L757,531.08l-.12-.22c0,.09-.23.51-.54,1.25-.52,1.27-.89,2.26-1.12,3l-.33.95a5.41,5.41,0,0,0-.22.66,2.07,2.07,0,0,1-.12.38Z" transform="translate(0.91 1.4)"/><path class="cls-2" d="M766.36,545l0-.27a2.52,2.52,0,0,1,1-.29,4.09,4.09,0,0,0,1.1-.23.68.68,0,0,0,.33-.32,2.15,2.15,0,0,0,.17-.82l0-.92v-.86l0-1c0-.41,0-.93,0-1.56s0-1,0-1v-3.33c0-.53,0-1.1,0-1.72s0-1,0-1.27a8,8,0,0,0,0-1.22.38.38,0,0,0-.19-.25,3.24,3.24,0,0,0-.87-.13,7.66,7.66,0,0,1-.8-.09.56.56,0,0,1-.06-.22c0-.06,0-.14,0-.23l.45,0h1.14c.82,0,1.68,0,2.59-.1.45,0,1.12-.06,2-.08a.76.76,0,0,1,0,.21.24.24,0,0,1-.06.18.29.29,0,0,1-.19.1,4.36,4.36,0,0,0-1.88.39,2,2,0,0,0-.29,1.34c0,1.31,0,2.67.06,4.07l0,1.15a12.43,12.43,0,0,0,1.59.12l.49,0,1.79,0,1.18,0,3.1-.09a4.52,4.52,0,0,0,.69-.05c0-1.41.08-2.78.08-4.1a14.42,14.42,0,0,0-.09-2.24.39.39,0,0,0-.17-.28,11.82,11.82,0,0,0-1.27-.2,2.28,2.28,0,0,1-.39-.06,1.37,1.37,0,0,1-.06-.42,3.86,3.86,0,0,1,.52-.07l.81.05c.74,0,1.48,0,2.23,0,.48,0,1.28,0,2.39-.12a2.75,2.75,0,0,1-.06.44,3.81,3.81,0,0,1-1.11.23,2.42,2.42,0,0,0-.69.13.83.83,0,0,0-.24.7c0,.08,0,.17,0,.27,0,.29,0,.48,0,.57v2.28l0,1.13V537l0,2c0,.39,0,1,0,1.86v1.65a3.59,3.59,0,0,0,.14,1.18.42.42,0,0,0,.25.24l1,.22a3.82,3.82,0,0,1,.87.3.37.37,0,0,1,.14.28l0,.14-.06,0-.16,0a15.58,15.58,0,0,0-2.79-.24c-.76,0-1.31,0-1.63,0s-1,.12-2,.27a1.31,1.31,0,0,1,0-.23,1.2,1.2,0,0,1,0-.23,3.1,3.1,0,0,1,1.19-.31,1.56,1.56,0,0,0,1-.39.82.82,0,0,0,.24-.64l0-1.76c0-.53,0-.82,0-.86,0-.69,0-1.7,0-3a.28.28,0,0,0-.13-.21,20.56,20.56,0,0,0-3.24.05c-.39,0-.69,0-.88,0l-1.23,0-1.72,0h-1.34a.55.55,0,0,0-.39.11.62.62,0,0,0-.1.41v.85c0,.14,0,.91-.06,2.3,0,.29,0,.52,0,.71A12.93,12.93,0,0,0,771,544a.5.5,0,0,0,.22.35,4.51,4.51,0,0,0,1,.26,6.77,6.77,0,0,1,.85.23l.08.12a.12.12,0,0,1,0,.1.33.33,0,0,1-.21.06h-.23l-.53,0c-.41,0-.93,0-1.54-.09-.4,0-.76-.05-1.07-.05q-.78,0-2.49.09Z" transform="translate(0.91 1.4)"/><path class="cls-2" d="M680.23,578.65h0a2.54,2.54,0,0,1-1,1,3.11,3.11,0,0,1-1.51.38,3.43,3.43,0,0,1-1.52-.35,3.72,3.72,0,0,1-1.25-1A5.09,5.09,0,0,1,674,577a7.38,7.38,0,0,1-.32-2.26,6.53,6.53,0,0,1,1-4.05,3.46,3.46,0,0,1,2.91-1.36,3,3,0,0,1,1.47.36,2.82,2.82,0,0,1,1,1h0v-5h1.24v5h0a2.82,2.82,0,0,1,1-1,3,3,0,0,1,1.48-.36,3.46,3.46,0,0,1,2.9,1.36A6.53,6.53,0,0,1,688,574.7a7.4,7.4,0,0,1-.31,2.26,5.1,5.1,0,0,1-.86,1.66,3.66,3.66,0,0,1-1.26,1,3.44,3.44,0,0,1-1.5.35,3.14,3.14,0,0,1-1.52-.38,2.54,2.54,0,0,1-1-1,0,0,0,0,1,0,0v4.82h-1.24ZM678,579a2.28,2.28,0,0,0,1.61-.6,2,2,0,0,0,.65-1.59v-4.25a2.25,2.25,0,0,0-.17-.87,2.33,2.33,0,0,0-.48-.68,1.84,1.84,0,0,0-.7-.45,2.42,2.42,0,0,0-.89-.16,2.78,2.78,0,0,0-1.18.25,2.43,2.43,0,0,0-1,.77,3.69,3.69,0,0,0-.65,1.35,7.15,7.15,0,0,0-.24,2,7.32,7.32,0,0,0,.22,1.93,3.52,3.52,0,0,0,.62,1.32,2.37,2.37,0,0,0,1,.75A2.86,2.86,0,0,0,678,579Zm5.76,0a2.83,2.83,0,0,0,1.22-.25,2.37,2.37,0,0,0,.95-.75,3.86,3.86,0,0,0,.62-1.32,7.32,7.32,0,0,0,.22-1.93,7.18,7.18,0,0,0-.23-2,4,4,0,0,0-.65-1.35,2.53,2.53,0,0,0-1-.77,2.75,2.75,0,0,0-1.18-.25,2.33,2.33,0,0,0-.88.16,1.87,1.87,0,0,0-.71.45,2.3,2.3,0,0,0-.47.68,2.08,2.08,0,0,0-.18.87v4.25a2.07,2.07,0,0,0,.65,1.59A2.28,2.28,0,0,0,683.73,579Z" transform="translate(0.91 1.4)"/><path class="cls-2" d="M694,580a4.73,4.73,0,0,1-2.08-.42,3.85,3.85,0,0,1-1.42-1.16,4.87,4.87,0,0,1-.81-1.7,7.72,7.72,0,0,1-.27-2.07,7.31,7.31,0,0,1,.27-2,5.14,5.14,0,0,1,.81-1.72,4.21,4.21,0,0,1,1.42-1.22,4.35,4.35,0,0,1,2.08-.46,4.14,4.14,0,0,1,2.09.49,4.26,4.26,0,0,1,1.41,1.29,5.19,5.19,0,0,1,.77,1.83,7.77,7.77,0,0,1,.2,2.09h-7.81a5.24,5.24,0,0,0,.19,1.4,3.67,3.67,0,0,0,.6,1.28,3.24,3.24,0,0,0,1,.94A2.89,2.89,0,0,0,694,579a3,3,0,0,0,2.13-.71,3.74,3.74,0,0,0,1.06-1.89h1.24a4.88,4.88,0,0,1-1.45,2.68A4.3,4.3,0,0,1,694,580Zm3.23-6.08a4.35,4.35,0,0,0-.25-1.34,3.54,3.54,0,0,0-.64-1.14,3.13,3.13,0,0,0-1-.8,3.17,3.17,0,0,0-2.69,0,3.17,3.17,0,0,0-1,.8,4.17,4.17,0,0,0-.66,1.15,5.61,5.61,0,0,0-.32,1.33Z" transform="translate(0.91 1.4)"/><path class="cls-2" d="M704.39,580a4.83,4.83,0,0,1-2.06-.42,4.49,4.49,0,0,1-1.5-1.15,5.1,5.1,0,0,1-.93-1.7,7.1,7.1,0,0,1,0-4.15,5.05,5.05,0,0,1,.93-1.71,4.46,4.46,0,0,1,3.56-1.59,4.38,4.38,0,0,1,2.76.87,3.63,3.63,0,0,1,1.35,2.61h-1.24a3.36,3.36,0,0,0-.94-1.77,2.71,2.71,0,0,0-1.93-.65,3.2,3.2,0,0,0-1.55.37,3.44,3.44,0,0,0-1.12,1,4.41,4.41,0,0,0-.66,1.38,5.54,5.54,0,0,0,0,3.16,4.41,4.41,0,0,0,.66,1.38,3.3,3.3,0,0,0,1.12,1,3.1,3.1,0,0,0,1.55.38,2.64,2.64,0,0,0,1.08-.22,2.88,2.88,0,0,0,.91-.6,3.2,3.2,0,0,0,.65-.91,3.43,3.43,0,0,0,.31-1.16h1.24a4.66,4.66,0,0,1-1.36,2.88A4,4,0,0,1,704.39,580Z" transform="translate(0.91 1.4)"/><path class="cls-2" d="M712.87,570.65h-3.76v-1.07h8.76v1.07h-3.76v9.09h-1.24Z" transform="translate(0.91 1.4)"/><path class="cls-2" d="M719,569.58h1.24v8.7l5.6-8.7h1.54v10.16h-1.24V571l-5.61,8.7H719Z" transform="translate(0.91 1.4)"/><path class="cls-2" d="M729.71,569.58h4.64a4.09,4.09,0,0,1,2.4.61,2.09,2.09,0,0,1,.85,1.79,2.44,2.44,0,0,1-.47,1.52,2.33,2.33,0,0,1-1.28.85v0a2.73,2.73,0,0,1,1.57.78,2.44,2.44,0,0,1,.57,1.73,2.55,2.55,0,0,1-.92,2.11,4.39,4.39,0,0,1-2.72.73h-4.64Zm4.5,4.37a2.47,2.47,0,0,0,1.61-.45,1.46,1.46,0,0,0,.54-1.2c0-1.1-.72-1.65-2.15-1.65H731V574Zm0,4.72a3.12,3.12,0,0,0,1.92-.48,1.71,1.71,0,0,0,.62-1.43,1.59,1.59,0,0,0-.62-1.35,3.12,3.12,0,0,0-1.92-.47H731v3.73Z" transform="translate(0.91 1.4)"/><path class="cls-2" d="M742.75,580a4.8,4.8,0,0,1-1.33-.17,2.87,2.87,0,0,1-1.08-.53,2.55,2.55,0,0,1-.73-.92,3.14,3.14,0,0,1-.26-1.32,2.58,2.58,0,0,1,.47-1.66,2.94,2.94,0,0,1,1.25-.92,7.35,7.35,0,0,1,1.75-.44l2-.24.68-.1a1.2,1.2,0,0,0,.5-.21.94.94,0,0,0,.3-.4,1.76,1.76,0,0,0,.11-.67,2.22,2.22,0,0,0-.21-1,1.53,1.53,0,0,0-.57-.64,2.41,2.41,0,0,0-.84-.32,5.67,5.67,0,0,0-1-.09,3.12,3.12,0,0,0-1.92.56,2.17,2.17,0,0,0-.79,1.78h-1.24A3.26,3.26,0,0,1,741,570.1a4.77,4.77,0,0,1,2.88-.81,6.76,6.76,0,0,1,1.34.13,3,3,0,0,1,1.2.48,2.61,2.61,0,0,1,.86,1,3.5,3.5,0,0,1,.34,1.66V578a.65.65,0,0,0,.73.74.78.78,0,0,0,.39-.08v1l-.38.06-.43,0a1.94,1.94,0,0,1-.75-.13,1.1,1.1,0,0,1-.45-.37,1.33,1.33,0,0,1-.2-.56,3.94,3.94,0,0,1,0-.72h0a8.13,8.13,0,0,1-.68.88,3.13,3.13,0,0,1-.77.64,3.4,3.4,0,0,1-1,.39A5.39,5.39,0,0,1,742.75,580Zm.1-1a4.17,4.17,0,0,0,1.36-.22,3.21,3.21,0,0,0,1.13-.63,3,3,0,0,0,1-2.34v-1.61h0a.71.71,0,0,1-.45.31,4.46,4.46,0,0,1-.59.14l-1.62.25a9.15,9.15,0,0,0-1.53.32,3,3,0,0,0-1.13.63,1.48,1.48,0,0,0-.44,1.14,1.89,1.89,0,0,0,.18.84,2.21,2.21,0,0,0,.51.63,2.15,2.15,0,0,0,.71.4A2.72,2.72,0,0,0,742.85,579Z" transform="translate(0.91 1.4)"/><path class="cls-2" d="M750,579.83a1.1,1.1,0,0,1-.24,0l-.28,0-.28,0-.18-.05v-1.09a1.77,1.77,0,0,0,.47.1,3.79,3.79,0,0,0,.53,0,1.71,1.71,0,0,0,.43-.06.9.9,0,0,0,.47-.32,2.88,2.88,0,0,0,.46-.84,8.24,8.24,0,0,0,.37-1.58c.11-.68.19-1.53.26-2.56s.1-2.29.1-3.79h6.78v10.16h-1.24v-9.09h-4.36c0,1.46,0,2.71-.13,3.73a17.31,17.31,0,0,1-.36,2.55,6.39,6.39,0,0,1-.54,1.61,2.64,2.64,0,0,1-.68.87,1.72,1.72,0,0,1-.76.36A5.55,5.55,0,0,1,750,579.83Z" transform="translate(0.91 1.4)"/><path class="cls-2" d="M761.3,569.58h1.24v4.06h3.64a3.33,3.33,0,0,1,2.34.79,2.85,2.85,0,0,1,.87,2.23,3,3,0,0,1-.87,2.26,3.3,3.3,0,0,1-2.34.82H761.3Zm4.59,9.09a2.5,2.5,0,0,0,1.66-.51,1.85,1.85,0,0,0,.6-1.5,1.78,1.78,0,0,0-.6-1.48,2.6,2.6,0,0,0-1.66-.48h-3.35v4Z" transform="translate(0.91 1.4)"/><path class="cls-2" d="M688.13,383.38a.58.58,0,0,1-.48-.27c-.74-1.14-4.81-16.16-5.56-34.75a117.82,117.82,0,0,1,2.3-29.83c2.43-11.12,6.71-20.56,12.7-28a67,67,0,0,0,4.35-6.42l1.45-2.45-.48,2.8c0,.05-.71,4.27.66,7a7.61,7.61,0,0,0,2,2.35,4,4,0,0,1,1.54,2c2.47,12,8.34,15.1,9.44,15.27a90,90,0,0,0,4.93-9.95l.41-1c1-2.47,3.51-8.24,1.69-9.7-3.17-2.54-4.49-2.08-5.35-1.29a1.16,1.16,0,0,0-.25.84.93.93,0,0,0,.44.75c3.44,2.24,2.41,6,1.37,7.79-.8,2.09-2.75,6.88-3.93,7.39a1.44,1.44,0,0,1-1.35-.24c-1.8-1.1-4.65-5.31-5.23-12.47-1-.59-4.69-2.93-4.63-6,0-1.16.44-7.05,6.41-9.05,3.87-1.29,8.54-.1,13.15,3.37,6.55,4.92,13.39,15.22,12.94,26.22a14,14,0,0,0,.17,4c.39-.45,1.45-2.24,3.71-9.32,1.45-4.55,2.75-9.27,3.09-10.56a30.65,30.65,0,0,0,.58-5c.25-3.72.44-5.67,1.54-5.95.81-.2,1.5.72,2,1.55.25.39.64,1,1.14,1.67a108.36,108.36,0,0,1,13.9,27.05c6.07,17.42,8,36.63,5.78,57.09-.27,2.53-.64,3.45-1.39,3.53-1.16.12-1.93-2.05-4.22-8.93-3.24-9.76-8.66-26.09-17.11-33.19-1.58-1.33-5.27-4.43-6.16-4.12-.33.12-.51,1-.7,2l-.07.35A18.6,18.6,0,0,0,740.48,340l.59,1-1.16-.26a15.83,15.83,0,0,0-7.12.3c-3.19.94-5.07,4.61-5.2,6.89-.05.87.16,1.49.56,1.67a5.59,5.59,0,0,0,2.82,0c1.78-.28,4-.63,5,1.57,1.81,3.82-6.5,17.28-6.59,17.42a1.65,1.65,0,0,1-1.5,1c-1.54-.11-2.83-2.81-5-7.58-.57-1.26-1.15-2.56-1.77-3.81a7.11,7.11,0,0,0-1.8-1.81c-3.22-2.69-9.21-7.69-9.34-22.95,0-4.84-1.31-7.75-3.4-7.79h0c-2.3,0-6.33,3.56-10.2,13.62-2.93,7.62-6.64,21.38-7.7,43.61a.57.57,0,0,1-.4.54Zm13-96.89a56.82,56.82,0,0,1-3.27,4.65c-5.88,7.34-10.08,16.6-12.48,27.53a116.5,116.5,0,0,0-2.3,29.49,152.45,152.45,0,0,0,4.64,32c1.22-20.85,4.79-33.94,7.63-41.33,3.45-9,7.62-14.3,11.18-14.3h.07c2.77.06,4.38,3.28,4.43,8.83.12,14.78,5.87,19.58,9,22.15a7.69,7.69,0,0,1,2.07,2.16c.62,1.27,1.21,2.58,1.78,3.84,1.39,3.07,3.12,6.89,4.1,7,.2,0,.43-.28.55-.46,2.76-4.37,7.67-14,6.52-16.41-.66-1.39-1.92-1.3-3.92-1a6.3,6.3,0,0,1-3.4-.05c-.85-.37-1.28-1.32-1.2-2.69.15-2.49,2.14-6.7,6-7.83a16.71,16.71,0,0,1,6.6-.49,20.38,20.38,0,0,1-1.21-11.9l.07-.34c.28-1.37.49-2.44,1.38-2.75,1.12-.39,2.8.61,7.18,4.3,8.68,7.29,14.16,23.8,17.44,33.66,1.19,3.61,2.43,7.33,3.09,8.11a9.25,9.25,0,0,0,.48-2.49c2.22-20.31.29-39.36-5.73-56.64A107.37,107.37,0,0,0,748,284.73c-.51-.73-.91-1.31-1.16-1.72-.51-.82-.79-1-.89-1.07-.43.44-.62,3.28-.73,5a31.42,31.42,0,0,1-.62,5.24c-.37,1.39-1.76,6.42-3.27,11.12-.9,2.79-1.69,5-2.35,6.57-1,2.33-1.66,3.2-2.39,3.09s-1.18-1-1-5.23c.43-10.62-6.19-20.58-12.52-25.34-4.34-3.26-8.67-4.4-12.2-3.21-5.3,1.77-5.67,7-5.69,8.07h0c-.06,2.9,4.28,5.22,4.33,5.24l.25.14,0,.29c.49,6.78,3,10.54,4.42,11.69a1.52,1.52,0,0,0,.74.4h0c.6-.35,2.21-3.81,3.37-6.84l0-.08c.1-.17,2.45-4.15-1-6.42a2,2,0,0,1-.92-1.54,2.17,2.17,0,0,1,.59-1.69c2.14-1.95,4.71-.36,6.72,1.25,2.44,1.95-.05,7.79-1.39,10.92-.16.37-.29.69-.4.95A76,76,0,0,1,716.7,312c-.23.23-.61.26-1.15.1-2.46-.74-7.71-5-10-16-.11-.5-.59-.93-1.21-1.47a8.53,8.53,0,0,1-2.23-2.67A11.84,11.84,0,0,1,701.18,286.49Z" transform="translate(0.91 1.4)"/><path class="cls-2" d="M761,400c-.93,0-1.81-1.81-4.62-8.3-1.86-4.3-4-9.18-5.65-11.43l-.22-.32c-2.23-3.35-3-3.36-3.11-3.33s-.33.35-.42,1.34c-.25,2.76,1.34,4.26,2.51,5.36.82.77,1.53,1.45,1.22,2.31-.59,1.63-5,2.26-6.28,2.42l-.53.06,0-.54c-.05-.54-.12-1.14-.21-1.63a9.29,9.29,0,0,1-.53,1.63,2.52,2.52,0,0,1-1.67,1.38,2.85,2.85,0,0,1-2.23-.23c-.67-.47-.81-2.19-.83-3.32-.44-.36-1.58-1.29-2.58-2.16a16.35,16.35,0,0,1-4.8-9.69c-.28-2.22,1.25-5.05,3-8.32,2.29-4.23,5.13-9.5,4.73-15-.2-2.6-2.87-2.69-5.58-2.56-1.18.06-1.78.09-2.07-.34a.71.71,0,0,1-.05-.68,6.94,6.94,0,0,1,6.34-4.22h0a7.05,7.05,0,0,1,5.34,2.37c3.34,3.78,2.79,10.72,2.73,11.39a.92.92,0,0,1-.25.75,1.37,1.37,0,0,1-1.18.18,2.81,2.81,0,0,0-3,1.12c-2.45,3-2.35,5.4-1.85,6.88.15-2.3.86-5.87,3.71-6.88,1.76-.63,5.11.72,13.9,19.66a58.73,58.73,0,0,1,5,18.36c.21,2.59.05,3.52-.64,3.69Zm-13.53-24.43c.72,0,1.81.65,3.91,3.79l.19.28c1.75,2.36,3.89,7.29,5.77,11.65a64,64,0,0,0,3.5,7.38,13.3,13.3,0,0,0-.05-2.29,57.48,57.48,0,0,0-4.92-18c-8.48-18.28-11.63-19.46-12.6-19.12-3.47,1.24-3,7.76-3,7.83l.1,1.45-1-1.05s-3.8-4.1.91-9.87a3.82,3.82,0,0,1,3.92-1.5l.25,0c0-.39.58-7.16-2.48-10.61a6,6,0,0,0-4.57-2h0a5.78,5.78,0,0,0-5.16,3.18l.92,0c2.23-.11,6.39-.31,6.67,3.53.43,5.77-2.5,11.19-4.85,15.54-1.69,3.11-3.14,5.8-2.9,7.69a15.23,15.23,0,0,0,4.44,9c1.26,1.09,2.73,2.28,2.75,2.29l.19.15v.26a6.74,6.74,0,0,0,.4,2.73,2,2,0,0,0,1.34.06,1.47,1.47,0,0,0,1-.8,9.79,9.79,0,0,0,.51-1.64c.19-.79.36-1.47,1-1.47.34,0,.85,0,1.16,2.91,2.27-.33,4.66-1,4.89-1.66.08-.22-.48-.74-1-1.2-1.25-1.17-3.13-2.94-2.83-6.22,0-.49.17-2,1.21-2.25A1,1,0,0,1,747.45,375.52Z" transform="translate(0.91 1.4)"/><path class="cls-2" d="M763.32,387.23c-.52,0-.64-.62-.72-1-1.19-5.68-10.56-25.06-15.23-28-1.33-.84-.42-3.77-.22-4.35l.15-.43.45.09c5.94,1.2,10.63,6.66,13.55,15.79A57.17,57.17,0,0,1,764,386.12c0,.43-.07,1.07-.63,1.11ZM748,354.7c-.32,1.17-.43,2.45-.08,2.67,4.62,2.9,12.46,18.91,15,26.25-.3-4.75-1.75-14.31-5.75-21.18C754.69,358.18,751.61,355.58,748,354.7Z" transform="translate(0.91 1.4)"/><path class="cls-2" d="M725.75,400.19a93.54,93.54,0,0,1-24.87-3.31c-.89-.24-1.7-1.27-2.47-3.15a23.35,23.35,0,0,1-1.22-4c-.16-.79-.2-1.12.08-1.34l.26-.2.3.13c9.31,4.26,27.68,6.43,37.8,4.48,7-1.34,12.09-2.61,14.56-3.22l1.55-.38.83-.18-1.93,7.76-.25.09C750.26,396.92,740.32,400.19,725.75,400.19Zm-27.52-10.56c.38,1.82,1.65,5.89,2.93,6.24,25.14,6.92,46.11.88,48.6.1l1.38-5.56-.7.18c-2.48.61-7.64,1.88-14.61,3.23-5,1-12.21,1-19.73.08A70.5,70.5,0,0,1,698.23,389.63Z" transform="translate(0.91 1.4)"/><path class="cls-2" d="M716.57,390.9c-2.54,0-8.84-1.3-9.59-2-.38-.38-.43-1.44-.52-5.85-.05-2.13-.09-4.54-.24-6.49-.21-2.66-.52-3.32-.64-3.48-2,.29-1.8,5.23-1.65,8.85.16,3.46.19,5.13-.73,5.56-.66.3-1.3-.29-1.51-.49-9.56-8.88-8.36-23.46-7.18-26.57.72-1.92,1.56-2.86,2.56-2.89h0c1.79,0,3.12,3,4.1,5.26.18.42.34.78.47,1a2.88,2.88,0,0,0,2,1.59c0-.06.11-.41-.34-1.44-.06-.14-.31-.57-.6-1.07-1.85-3.22-6.17-10.75-5.52-15.2l0-.16c.22-1.49.48-3.36,2.46-4.46,4.18-2.62,9.23-1.22,9.45-1.15l.51.14-.16.51c0,.16-1.23,3.92-6.15,6.41a1.62,1.62,0,0,0-1,1.33c-.42,3.29,6.33,10.21,9.73,13.32.44-2.37,1.36-6.18,2.67-6.62a1,1,0,0,1,1.07.28h0c6.08,5.83,9.48,14.45,11.27,20.66a74.13,74.13,0,0,1,2.44,12.19l0,.57h-4.74l-.08-.43s-.43-2.3-1.46-5.7c-2.68-8.84-6.57-11.23-7.32-11.61a2.34,2.34,0,0,0-.77-.28l.14.22c1.73,2.29,5.94,12.26,2.69,17.55a1.2,1.2,0,0,1-.91.45A4.27,4.27,0,0,1,716.57,390.9Zm-8.81-2.77a22.48,22.48,0,0,0,4.64,1.22,15.88,15.88,0,0,0,4.76.46c2.77-4.67-.89-13.93-2.67-16.31-.53-.7-.45-1.17-.3-1.44a1,1,0,0,1,1.1-.44c2.06.23,6.32,3.87,9,12.62.79,2.63,1.23,4.57,1.4,5.39h2.72c-.41-3.46-3-21.76-13.32-31.61h0l0,0c-.52.24-1.5,3-2.12,6.71l-.15.93-.71-.62c-.46-.41-11.38-10.06-10.77-14.86a2.72,2.72,0,0,1,1.57-2.14,12.34,12.34,0,0,0,4.51-3.74,9.26,9.26,0,0,0,.9-1.51c-1.39-.27-5-.72-8,1.18h0c-1.53.85-1.74,2.3-1.94,3.7l0,.16c-.59,4.09,3.76,11.67,5.4,14.52.38.67.57,1,.65,1.18.81,1.86.36,2.55-.16,2.8-1,.48-2.7-.73-3.37-2.06-.13-.27-.3-.65-.49-1.08-.61-1.39-2-4.63-3.14-4.63h0c-.5,0-1.09.82-1.61,2.21s-1,5.78-.38,10.5c.6,4.28,2.36,10.35,7.29,14.93a1.25,1.25,0,0,0,.37.28c.3-.5.19-2.82.12-4.53-.19-4.33-.43-9.72,2.7-10a.87.87,0,0,1,.66.24c1,.89,1.13,4.84,1.25,10.77A43.62,43.62,0,0,0,707.76,388.13Zm9.45,1.66Zm-9.43-1.6Z" transform="translate(0.91 1.4)"/><path class="cls-2" d="M702.24,280.66l.25-.28a2.54,2.54,0,0,0-1.43-.89c-1.73-.44-3.65,1.14-2.91,3l0,.1-.09-.07c-.58-.49-1.11-1.17-1.9-1.26a.83.83,0,0,0-.22,0l-.11,0-.1,0a1.09,1.09,0,0,0-.49.73,7.9,7.9,0,0,0,.54,3.66l-.09,0a2.4,2.4,0,0,0-1-1,.72.72,0,0,0-.67,0,.93.93,0,0,0-.4.56,7.44,7.44,0,0,0,0,3.08l-.11-.07a1.7,1.7,0,0,1-.39-.36l-.33-.39a7.82,7.82,0,0,0-.7-.71,6.29,6.29,0,0,0-1.67-1.08c-.5-.22-1.11-.46-1.58-.12s-.48,1.41-.48,2.07v.2a11.68,11.68,0,0,0-2.41-1.49c-1.36-.64-3.91-1.47-4.81-.22a4.8,4.8,0,0,0,.13,2.54l.06.29a3.37,3.37,0,0,0-1.81-.65,7.26,7.26,0,0,0-5.32,2c-1.21,1.11,0,4.22.56,5.5l.16.33a7.53,7.53,0,0,0-1.81-.35,3.32,3.32,0,0,0-1.58.19c-.37.18-.37.65-.43,1-.1,2.23,1.33,5.15,3.45,6.06l1.53.65-1.64-.28c-1.35-.21-5.12-1-4.27,1.13a5.34,5.34,0,0,0,1.85,2.07,7.07,7.07,0,0,0,2.6,1.11l1.68.33-1.71.11a4.78,4.78,0,0,0-1.14.21c-.67.2-1.31.76-1.07,1.5a4.35,4.35,0,0,0,2.53,2.18c.49.21,1.19.41,1.7.59a18.94,18.94,0,0,0,2.07.45c-1.29.2-2.94.34-4.21.61a4.11,4.11,0,0,0-1.21.41.84.84,0,0,0-.37.35c-.25.88,1.06,1.84,1.78,2.16a5.22,5.22,0,0,0,2.94.42,1.64,1.64,0,0,0-.16.91c.43,1.3,2.65,1.49,3.84,1.45l2.28-.08-2.18.66c-2.16.62-4,2.41-.85,3.5l-.46.32-.17.12-.09.06h-.1a7,7,0,0,0-4.72,1.36l-.22.2-.22-.21a3.88,3.88,0,0,0-3.92-.81l-.47.17,0-.5c0-.09,0-.15,0-.19V324c0-.1,0-.21,0-.32l0-.31-.08-.32c-.48-1.6-1.68-3.39-3.49-3.48a1.54,1.54,0,0,0-.46.11,4.4,4.4,0,0,0-1.42,1.27c-.38.46-.77,1-1.19,1.44a7.72,7.72,0,0,0-4.14-3.15c-.92-.29-2.1-.36-2.61.56a3.31,3.31,0,0,0-.33,1.47,7.29,7.29,0,0,0,.66,3.12l.48,1-1-.5c-2.27-1.16-3.26.34-2.19,2.6a8,8,0,0,0,2.15,2.64l-.75.15a.94.94,0,0,0-.44.2c-.64.54-.48,1.5-.22,2.26a6.73,6.73,0,0,0,1.93,2.73l.62.54-.81.16c-1.77.34-1.4,1.67-.23,2.66a9.8,9.8,0,0,0,1.93,1.21l-.76.35a.91.91,0,0,0-.66,1,2.91,2.91,0,0,0,1.14,1.61,8,8,0,0,0,4,1.6l-.05.43a2.17,2.17,0,0,0,.81,1.57,7.12,7.12,0,0,0,5.79,1.8l.47-.11.07.5c.19.83,1.17,1.11,1.93,1.29A9.71,9.71,0,0,0,675,350l-.3.75a.81.81,0,0,0-.07.39c.09.48.49.75,1,1a9,9,0,0,0,3.48.47l-.92.78a3,3,0,0,0-.83,3.07l.61,2.18-1.42-1.76a1.9,1.9,0,0,0-2.78-.34l-1,.8c0-.26.24-1.38.29-1.58a11.74,11.74,0,0,0-.88-1.6,5.77,5.77,0,0,0-1.59-1.67,1,1,0,0,0-.81-.17,1.39,1.39,0,0,0-.38.24,1.48,1.48,0,0,0-.3.36,7.69,7.69,0,0,0-.41,2.29l-.16,1.35-.73-1.16a3.69,3.69,0,0,0-4.91-1.06l-.27-.23c-1.18-1-3.76-2.82-5.17-2.08a1.17,1.17,0,0,0-.37.81c-.1.81,0,1.7-.07,2.56l-.06,1.11-.8-.79a6.72,6.72,0,0,0-1.14-.87,11.46,11.46,0,0,0-2.69-1.22,3.9,3.9,0,0,0-1.59-.22s-.05,0-.09.07a1.44,1.44,0,0,0-.25.5,6.71,6.71,0,0,0-.23,1.4,16.14,16.14,0,0,0,.24,4,22.29,22.29,0,0,0-5.44-2.21,12,12,0,0,0-2.37-.34,4.64,4.64,0,0,0-3.14.78,1.88,1.88,0,0,0-.23,1.83c.46,1.68,1.79,3.67,3.49,4.18l-.2,1.06a6.81,6.81,0,0,0-1.17-.09,1.68,1.68,0,0,0-.89.22.56.56,0,0,0-.18.27l0,0v.05l0,.11a4.21,4.21,0,0,0,1.4,3.23,5.44,5.44,0,0,0,1.91,1.26l3.9,1.39-4.13-.33a2.65,2.65,0,0,0-.86,0,.73.73,0,0,0-.23.1.27.27,0,0,0-.08.17.69.69,0,0,0,0,.25,1.72,1.72,0,0,0,.69,1,2.94,2.94,0,0,0,3.28.5l2.31-1.26-1.58,2.05a3.11,3.11,0,0,1-1.07.77,3.64,3.64,0,0,0-.92.67.69.69,0,0,0-.14.25c-.09.53.51.94,1,1.19a13,13,0,0,0,2.91.94l.44.55c0-.09,0-.08,0,0a.89.89,0,0,1,0,.19.56.56,0,0,1-.2.33l-.07,0-.07,0c-1.52,1.14-1.46,2.63.92,2.83a11.06,11.06,0,0,0,2.85-.19,4.91,4.91,0,0,0,2.53-.89l.95-.82v1.25a.53.53,0,0,1,0,.25,6.49,6.49,0,0,0-.36.92c-.4,1.35.06,2.18,1.63,2.15.49,0,1.45-.15,2-.22.35,0,.7-.08,1-.14l.38-.06a2.66,2.66,0,0,0,2.85,1.12l.56-.11.13.55a1.15,1.15,0,0,0,.2.45,2,2,0,0,0,1.48.73,3.92,3.92,0,0,0,2.42-.63l.55-.31.29.53a1.68,1.68,0,0,0,2.2.75,6,6,0,0,0,1.51-1.12l.24.92a1.68,1.68,0,0,0,2.19,1.28l1.94-.55-1.33,1.52a2.08,2.08,0,0,0-.58,1.94l.28.85-.89-.06a3.49,3.49,0,0,0-2.07.53,3.19,3.19,0,0,0-1.37,1.59l-.42,1.16-.66-1a1.72,1.72,0,0,0-2.34-.54,3.09,3.09,0,0,0-1.59,2.35L666,396l-.47.06c-1.4.09-3,1.42-1.6,2.84l.9.93-1.29.1a8.42,8.42,0,0,0-1.24.18,4.93,4.93,0,0,0-1.14.38,2.08,2.08,0,0,0-.44.28.94.94,0,0,0-.23.29c-.25,1.22,2,2.45,3,2.59a3.4,3.4,0,0,0,1.15,0l.79-.09-.11.78a1.84,1.84,0,0,0,1.52,2.28l.44,0,.11.43c.62,2.22,3.22,1.37,4-.34a11,11,0,0,0,.49-2l.82,1a1.85,1.85,0,0,0,1.28.58,3.42,3.42,0,0,0,3.56-2.58l.18-1.82.93,1.53a2.3,2.3,0,0,0,2.58.53,4.09,4.09,0,0,0,.71-.3l.37-.23a2.2,2.2,0,0,1,.57-.23,12.08,12.08,0,0,1,1.89-.25c3-.16,3.82-1.42,3.68-4.26l.27-.19c.69-.49,3.08-2.13,3.67-2.55.44,2.08,1.62,6.8,3.75,7.46l.15,0,.52.08a3,3,0,0,1,1.45.79,2,2,0,0,0,.9.5,4.66,4.66,0,0,0,1.18,0,22.51,22.51,0,0,0,3.87-.86c.43-.12,1.29-.41,1.72-.54a3.85,3.85,0,0,1,3.17,0c.82.47.95,1.49,1.77,1.8a5.89,5.89,0,0,0,2.42-.24,3.45,3.45,0,0,1,3.54,2c.23.41.41.81.63,1.18l.08.12,0,0h0l0,0a.29.29,0,0,0-.1,0,.38.38,0,0,0-.15,0,.15.15,0,0,0-.07,0h0a1.67,1.67,0,0,1,2.2-.67,19.44,19.44,0,0,0,4.55,1.74,3.24,3.24,0,0,0,1.47.11.42.42,0,0,0,.28-.24,3.39,3.39,0,0,0,.18-.72,2.7,2.7,0,0,1,.68-1.58,2.47,2.47,0,0,1,1.68-.6,3.09,3.09,0,0,0,1.06-.11l0,0c.1-.53-.06-1.07.09-1.67.4-1.79,2.53-2.55,4.17-2.79a2.85,2.85,0,0,1,2.16.61c.39.32.59.66.9.89a.15.15,0,0,0,.11,0l1,0-.49.88c-.76,1.31.42,2.09,1.71,2a5,5,0,0,0,3.84-2h.3c1.12,0,2.24-.22,3.37-.25a12.19,12.19,0,0,1,2,.14l-.26.73A5.06,5.06,0,0,0,748,406a1.58,1.58,0,0,0,.57,1.58,1.24,1.24,0,0,0,.8.06,4.9,4.9,0,0,0,3-3l.44-1.17.66,1.06.1.16.15.25a3.78,3.78,0,0,0-.26,2.19,1,1,0,0,0,1.08.8,4.43,4.43,0,0,0,2.94-2.51l.33-.66.56.43.33.25.27.2a2.3,2.3,0,0,0,.31,2.07,1.46,1.46,0,0,0,1.59,0,6,6,0,0,0,2.26-2.46l.53.59.24.26.21.21a2.8,2.8,0,0,0,.46.35l.27.16,0,.31c.21,2.43,2.55,1.83,3.9.58,1.55-1.38,3-4.11,2.17-6.17-.67-1.28-2.28-.71-3.25,0l-.5.37-.34-.51c-.91-1.49-.11-3.55.81-4.84a7.8,7.8,0,0,1,.59-.7c1.11-1.19,2.92-.67,4.2-.12a5.43,5.43,0,0,0,2.59,2c.81.31,2,.4,2.46-.33a2.49,2.49,0,0,0-.73-2.5,5.26,5.26,0,0,0-2.63-1.64l-.92-.23.6-.73c.77-.88,2.1-.77,3.12-.92a6.79,6.79,0,0,0,2.54-.64l.76-.41.11.86a1.5,1.5,0,0,0,.52.86c1.28,1.14,4,1.37,5,0,.51-.85-.44-1.65-1.2-2L782.29,389h2.65a2.07,2.07,0,0,1,.35,0,1.52,1.52,0,0,1,.34.1l.16.06H786a4,4,0,0,0,1.23.19,2.66,2.66,0,0,0,2-.65.77.77,0,0,0,.21-.69l-.1-.48.44-.18a3.77,3.77,0,0,1,.76-.24c.27,0,.47,0,.7-.08a7.92,7.92,0,0,0,1.13-.31l.06,0,0,0a3.43,3.43,0,0,0,1.32-.56,4.17,4.17,0,0,0,.29-6.27,3,3,0,0,0-2.83-.62L791,379c-.88-.8-2.25-1-3.31-1.56a3.19,3.19,0,0,1-1.9-2.73,1.13,1.13,0,0,1,.79-1.06,1.68,1.68,0,0,1,1.54.72l.11.1.05,0,0,0a.2.2,0,0,0,.11,0,1.88,1.88,0,0,0,.57-.37c.22-.19.45-.42.7-.64a3,3,0,0,1,4.11-.46l.13.08a4.34,4.34,0,0,0,1.22,1.69,3.44,3.44,0,0,0,1.64.84.92.92,0,0,0,.94-.29,2.12,2.12,0,0,0-.3-2l-1.89-3.2,2.72,2.51c.7.62,1,1.53,1.76,2l.11,0,.08.06a2.51,2.51,0,0,0,2,.61c.63-.24.57-1,.34-1.63a4.71,4.71,0,0,0-1.08-1.61c.14-.3.35-.72.51-1l.44.16a2.08,2.08,0,0,0,.79.15c.84,0,.95-.77.7-1.58a4.3,4.3,0,0,0-2.41-2.53s-.33-.36-.32-.33l.62-.69a3.69,3.69,0,0,0,3.58-1.06.89.89,0,0,0,.14-.91,2.41,2.41,0,0,0-2.14-.91,3.85,3.85,0,0,0-2.45.85l-.63.57a11.11,11.11,0,0,1-.39-1.87,6,6,0,0,0,1.5-1.83c1.09-1.92.83-4.85-2-3.09l-.26-.19a1.6,1.6,0,0,1-.55-.62,1.66,1.66,0,0,1-.16-.69h0l0,0a1.08,1.08,0,0,0-.53-.22c-.73-.16-1.52-.19-2.29-.3l-1.64-.22,1.49-.71c.7-.36,1.37-.95,1.1-1.7a1.29,1.29,0,0,0-.48-.51,3.81,3.81,0,0,0-3.36-.07l-.44-.86c1.09-.61,2.11-2.07.62-2.95-1.68-1-5.52-.19-5.89,2l-.08,1a12.74,12.74,0,0,1-1.08-1.14,7.47,7.47,0,0,0-.74-1.14.85.85,0,0,0-.16-.11c-.28.08-.5.41-.78.68a2.19,2.19,0,0,1-3.19.31,3.94,3.94,0,0,1-1.1-1.45l.69-.1.65-.08.32-.08c1.19-.33,2.71-1.14,2.67-2.51l-.05-.53.51,0a10.33,10.33,0,0,0,2.55-.18l.21-.06.08,0h0a.27.27,0,0,0,0,.21c0,.08,0,0,0,0a19.42,19.42,0,0,0-1.79-1,.72.72,0,0,1-.42-.78.63.63,0,0,1,.24-.34,1.7,1.7,0,0,1,.67-.26,8.27,8.27,0,0,1,1.71-.13h.27a3.42,3.42,0,0,0,1.18,1.49,2.45,2.45,0,0,0,2.19.53c.71-.37.27-1.33-.11-1.84a33.85,33.85,0,0,1-2.11-3.43l-.67-1.71,1.35,1.26a2.63,2.63,0,0,0,1,.57,5.07,5.07,0,0,0,3.72-.47,2.19,2.19,0,0,0,1.31-1.8c-.08-.83-1-1.29-1.74-1.46-.18-.24-.34-.47-.52-.73a1.45,1.45,0,0,1-.34-.94l0-.31c2.31,0,4.47-3.56,3.67-5.53-.55-1.12-1.64-.56-2.52-.18l.26-.78a1.08,1.08,0,0,0-.24-1,19.66,19.66,0,0,0-1.82-2,5.14,5.14,0,0,1-1-1.44,4,4,0,0,0,1.65-3.36c-.15-1-1-1-1.73-.52a4.64,4.64,0,0,0-1,.88c-.82-1-2.09-2.15-1.62-3.6.24-.8-1.68-1-2.19-1.21l.36-.41c.55-.58,1-1.75.08-2.16a3,3,0,0,0-2.65.59,3.36,3.36,0,0,0-1.24,1.54,7.25,7.25,0,0,1-1.72,1.95,1.41,1.41,0,0,1-.74.23c-1.93-.11-1.33-2.65-1.94-3.86a1.39,1.39,0,0,0-1.65-.82,1.33,1.33,0,0,0-.6.78c-.38,1-.34,2.14-.65,3.18l-.06.17a.79.79,0,0,1-.52.49c-1,0-1.4-1.16-1.71-1.89s-.51-1.59-1.16-1.83c-.12,0-.16,0-.25.12-.53.87-.51,1.95-1,2.88a1.08,1.08,0,0,1-1.93.15A4.07,4.07,0,0,1,769,315a17.45,17.45,0,0,1,0-3.15v-.24h0c0-.1.19-.27.15-.22l.07,0,.37,0a22.46,22.46,0,0,0,4.56-.45,6.79,6.79,0,0,0,1.23-.79.65.65,0,0,0,.23-.38,1,1,0,0,0-.13-.47,1.11,1.11,0,0,0-.83-.56l-.11,0a4.52,4.52,0,0,0-.55-.95,7.34,7.34,0,0,0-.77-.89l.11-.15.74-1,.11-.14.15.08c1.31.68,2.08-.26,1.75-1.6a4.22,4.22,0,0,0-2.09-2.73l-1.31-.65,1.44.29a5.26,5.26,0,0,0,3.32-.55.8.8,0,0,0,.51-.49,1.21,1.21,0,0,0-.11-.75,8.13,8.13,0,0,0-.9-1.48l-.12-.17a4,4,0,0,0,2.18-2,1.2,1.2,0,0,0-.31-1.54,1.7,1.7,0,0,0-.84-.23,4,4,0,0,0-2,.63v-.27a.58.58,0,0,0-.07-.28,2.56,2.56,0,0,0-.78-.72c-.45-.31-.94-.58-1.42-.87,1.83-2.15.28-4-2.25-2.25a4.14,4.14,0,0,0-1.3,1.46l0,0,0,0-.95.59.38-.51a4.23,4.23,0,0,0,.74-1.91c.23-1.28-.24-3.39-1.66-3a2.6,2.6,0,0,0-1.25,1.54l0,.12-.1-.06a2,2,0,0,0-1.78.34,9.57,9.57,0,0,0-1.71,1.33v-.63a4.13,4.13,0,0,0,.75-1.95,3.08,3.08,0,0,0-.8-2.86c-1-.62-1.93.66-2.22,1.54a5.88,5.88,0,0,0-1.62.24l-.07,0a4.78,4.78,0,0,1,0-.53c1.29-5.61-4.75-8.3-6-2.87a9.68,9.68,0,0,0-.18,1.78c0-1.72.39-3.86,2.15-4.6a2.91,2.91,0,0,1,3.23,1,5,5,0,0,1,1.05,3.37,7.64,7.64,0,0,1-.15,1.34,2.1,2.1,0,0,0,0,.44l-.06-.05a5.82,5.82,0,0,1,1.61-.25l-.06,0a2.89,2.89,0,0,1,1.31-1.67,1.1,1.1,0,0,1,1.08.08,1.88,1.88,0,0,1,.66.87,4.64,4.64,0,0,1-.5,4.09v.41l-.15-.07c.25-.23.5-.45.76-.66a5.47,5.47,0,0,1,1.76-1,1.37,1.37,0,0,1,1,.06l-.15.05a2.79,2.79,0,0,1,1.37-1.66,1.14,1.14,0,0,1,1.11.13,2.07,2.07,0,0,1,.65.9,4.71,4.71,0,0,1-.57,4.18l-.17-.18.42-.26,0,.05a4.23,4.23,0,0,1,3.32-2.3c2,0,1.79,2.07.78,3.25l0-.22a10.62,10.62,0,0,1,1.91,1.28,1.06,1.06,0,0,1,.37.78l-.22-.15a3,3,0,0,1,2.93-.27c1,.68.59,2.05-.1,2.8a4.75,4.75,0,0,1-1.61,1.2l.07-.26c1.71,2.32,1.59,3.18-1.34,3.84a5,5,0,0,1-1.84,0l.12-.36a4.17,4.17,0,0,1,1.47,1.26,4,4,0,0,1,.91,2.72c-.14,1.31-1.36,1.63-2.4,1.08l.27-.07-.74,1,0-.28c.13.13.24.25.36.39a5.91,5.91,0,0,1,.88,1.33l-.16-.12a1.53,1.53,0,0,1,1.33,1.5c-.11.73-.93,1-1.44,1.4a1.91,1.91,0,0,1-.63.26,33.23,33.23,0,0,1-4.67.43h0c0,.05.15-.11.13-.21h0v.26l0,.62a15.24,15.24,0,0,0,.07,2.44c.13.64.23,1.65.9,1.91.34.13.53-.08.69-.37a20.46,20.46,0,0,0,.74-2.33,1.49,1.49,0,0,1,.65-.91c1.55-.41,1.87,2.31,2.53,3.18a1,1,0,0,0,.57.47h0a.44.44,0,0,0,.09-.15l.05-.12c.45-1.46.13-4.55,2.3-4.43,1.32.14,1.9,1.28,2,2.49.12.67.11,1.67.63,2.09a.71.71,0,0,0,.82,0A6.92,6.92,0,0,0,783,315l0,.07a4,4,0,0,1,1.43-1.77c1.17-.88,3.53-1.47,4.17.3a2.54,2.54,0,0,1-.71,2.24l-.18-.55c1.08.28,2.6.61,2.1,2.21-.11.91.73,1.68,1.29,2.36h-.52c.73-.82,2.08-1.63,3.09-.79s.62,2.24.16,3.22a5,5,0,0,1-1.29,1.7l.1-.43c.74,1.41,2.46,2.19,3,3.76a1.54,1.54,0,0,1,0,.9l-.5-.47c2.57-1,3.52,1.55,2.7,3.73-.62,1.71-2,3.52-3.94,3.75l.36-.34c0-.05,0,0,0,.12a2,2,0,0,0,.17.27c.12.19.27.39.42.59l-.23-.15a2.62,2.62,0,0,1,2.21,2.13c0,2.22-2.71,3.31-4.57,3.32a4.17,4.17,0,0,1-2.87-.95l.67-.45c.52,1.19,1.43,2.15,2.07,3.31l0-.05a3.41,3.41,0,0,1,.51.94,1.66,1.66,0,0,1-.74,2.14,3.22,3.22,0,0,1-3.07-.61,4.14,4.14,0,0,1-1.34-1.58l.38.26a5.75,5.75,0,0,0-1.71.16l-.12.05s0,0,.08-.13a.43.43,0,0,0,0-.16s0,0,0-.05l0,0s0,0,0,0a18,18,0,0,1,2,1.19.87.87,0,0,1,.28.44,1.55,1.55,0,0,1,0,.22.72.72,0,0,1-.28.46l-.05,0,0,0-.09.05-.17.07a9.54,9.54,0,0,1-3.1.3l.46-.51a2.39,2.39,0,0,1-.43,1.65,5.44,5.44,0,0,1-4,2.06l.36-.68a1.92,1.92,0,0,0,.52.58c1.32,1,1.76-.16,2.77-1a1.1,1.1,0,0,1,.77-.21c.72.11,1,.76,1.33,1.25l.11.2c0,.06.07.12.11.17a1.63,1.63,0,0,0,.27.31l-.8.31a2.77,2.77,0,0,1,.82-1.7,5.74,5.74,0,0,1,6.49-1.07c2.07,1.27,1.25,3.57-.63,4.6l-.44-.86c1.75-.82,5-.61,5.29,1.74a2.7,2.7,0,0,1-1.72,2.31l-.15-.93a10.58,10.58,0,0,1,3.08.56,1.19,1.19,0,0,1,.61.77.68.68,0,0,0,0,.14v.1c0,.21.1.32.29.47l-.55,0c1.89-1.17,4-.28,3.82,2.19a6.57,6.57,0,0,1-2.23,4.36l.17-.45a4.94,4.94,0,0,0,.12.65l-.84-.25a4,4,0,0,1,1.48-.86c1.81-.66,5.09-.19,4.89,2.26-.41,2.09-3.21,2.83-5,2.41l.62-.68h0l-.32-.34a5.36,5.36,0,0,1,3.06,3.21c.68,2-.79,3.57-2.89,2.75l.68-.29-.15.31-.07-.64c.91,1,1.71,2.54,1,3.9-.87,1.52-2.92.92-4,.05l.19.1c-1.06-.37-1.49-1.54-2.22-2.25l.83-.68c2,3.42-1.16,5.27-3.93,2.84a5.47,5.47,0,0,1-1.45-1.94l.2.24c-2.48-1.72-3.22,2.34-5.33,1.56a1.88,1.88,0,0,1-.56-.41,1.53,1.53,0,0,0-.47-.39h0l.07,0c-.12.82.9,1.63,1.68,1.93.44.16.9.3,1.34.48a6.36,6.36,0,0,1,1.82,1.05l-.5-.13c2.6-.6,4.95,1.61,5.19,4.13s-1.4,5.17-3.63,5.58a7.13,7.13,0,0,1-2.09.47,3,3,0,0,0-.53.18l.34-.65a1.94,1.94,0,0,1-.48,1.71,4.36,4.36,0,0,1-4.27.83l.21,0a1.28,1.28,0,0,1-.43,0c-.26-.06-.34-.16-.57-.15l.24-1.11a4.14,4.14,0,0,1,1.37,1c1.52,1.72.21,3.69-1.88,4.05s-5.09-.4-5.51-2.73l.87.45a7.89,7.89,0,0,1-3,.78c-.49.06-1,.09-1.4.16a1.65,1.65,0,0,0-.92.33l-.32-.95c2.14.56,4.37,2.45,4.41,4.78,0,1.71-1.7,2.53-3.25,2.23a6.34,6.34,0,0,1-4-2.53l.26.21a4.75,4.75,0,0,0-1.89-.44,1.23,1.23,0,0,0-.83.35,5.41,5.41,0,0,0-1.33,2.35,2.35,2.35,0,0,0,0,1.64l-.85-.13c2.14-1.66,5.09-1.37,5.42,1.76a8,8,0,0,1-4.49,7.35c-2.1.93-4.08-.12-4.26-2.45l.29.47a4.38,4.38,0,0,1-.93-.78l-.24-.26,1-.09c-1,1.6-3.24,3.47-5.13,2.2a3,3,0,0,1-.9-2.92l.22.56-.24-.18.89-.23a7,7,0,0,1-1.53,2c-2.14,2-5.14,1.43-4.86-1.9a5.22,5.22,0,0,1,.28-1.27l.06.52-.09-.15,1.09-.12a6.9,6.9,0,0,1-1.44,2.32c-2.8,3.05-6.38,1.33-5-2.83l.51.82a10.85,10.85,0,0,0-2.13,0,20,20,0,0,1-2.32.18l.49-.24c-1.52,1.94-5.31,3.17-7.23,1.23a2.48,2.48,0,0,1-.19-2.91l.56.93a1.69,1.69,0,0,1-1.24-.61,1.91,1.91,0,0,0-1.83-.92,4.82,4.82,0,0,0-2.81,1.25c-.56.59-.07,1.7-.44,2.49a1.81,1.81,0,0,1-1.74.85c-.5,0-1.2-.06-1.44.45-.28.67-.17,1.74-.88,2.31a3.17,3.17,0,0,1-2.75.25,18.61,18.61,0,0,1-3.55-1.22,13.77,13.77,0,0,0-1.47-.68s0,0-.06,0a1,1,0,0,0-.21.18c-.1.09-.13.15-.34.36l-.18.13a.93.93,0,0,1-.83.08,1,1,0,0,1-.25-.15l-.08-.07a1.89,1.89,0,0,1-.32-.39c-.77-1.43-1.38-3.1-3.32-2.58-1.78.46-3.18.43-4.19-1.34-.52-.95-1.65-.65-2.58-.37-.39.11-1.33.43-1.74.54a23.2,23.2,0,0,1-4.11.9,3.69,3.69,0,0,1-2.6-.5,7.64,7.64,0,0,0-1-.73l-.32-.1-.37-.06c-2.87-.36-4.21-5.17-4.78-7.55l1,.38-2.92,2,.27-.53c.1,2.14-.63,4.25-2.92,4.88-1.19.38-2.4.26-3.56.52a1,1,0,0,0-.27.11,1.75,1.75,0,0,0-.18.11l-.22.13c-1.5.85-3.8,1-4.89-.6l1.11-.29a3.64,3.64,0,0,1-1,2.05,4.85,4.85,0,0,1-3.92,1.63,3.09,3.09,0,0,1-2.11-1l1.07-.28a4.39,4.39,0,0,1-1,2c-1.59,2-4.89,2-5.63-.84l.54.46a2.87,2.87,0,0,1-2.61-2.45,4.09,4.09,0,0,1,0-1.21l.67.69a5.72,5.72,0,0,1-4.21-1.29c-1.51-1.18-2.14-3.17,0-4.19a7.84,7.84,0,0,1,2.84-.69l-.39,1a2.68,2.68,0,0,1,.78-4.43,4.34,4.34,0,0,1,1.54-.46l-.53.52a4.72,4.72,0,0,1,.25-1c.88-2.48,4.25-3.8,5.9-1.3l-1.07.11a4.38,4.38,0,0,1,1.88-2.2,4.72,4.72,0,0,1,2.78-.7l-.61.78a3.24,3.24,0,0,1,.82-3.11l.61,1a2.87,2.87,0,0,1-3.66-2.13l1,.29a3.18,3.18,0,0,1-3.87.47,3,3,0,0,1-.94-1.06l.84.22-.36.2a4.39,4.39,0,0,1-1.15.46c-1.63.48-3.94-.06-4.37-1.94l.68.44a3.81,3.81,0,0,1-3.8-1.29l.59.22-.3.05-.28,0-.54.07-1.08.13-.55.06-.28,0H657c-2.82-.05-3.39-2.34-2.21-4.66l0,0h0v0a.59.59,0,0,0,0,.22l.94.44a5.81,5.81,0,0,1-3.07,1.15,12.25,12.25,0,0,1-3.16.19,3.8,3.8,0,0,1-2.43-1,2.45,2.45,0,0,1,.47-3.46,4.24,4.24,0,0,1,.62-.5l0,0a.52.52,0,0,0-.19.31.69.69,0,0,0,0,.16s0,0,0-.08l.44.56a13.48,13.48,0,0,1-3.18-1.05,3.15,3.15,0,0,1-1.42-1.31c-.72-1.68.94-2.43,2.11-3.13l.06,0s0,0,0,0l.73.79a3.74,3.74,0,0,1-3.53,0,3.52,3.52,0,0,1-2.06-2.24,1.52,1.52,0,0,1,1.14-1.83,3.66,3.66,0,0,1,1.22-.06l-.22,1.06a6.47,6.47,0,0,1-3.82-3.87c-.82-2.85.62-3.76,3.32-3.32l-.2,1.06c-2.16-.6-3.73-2.94-4.29-5-.44-1.69.05-3,1.79-3.6,3.31-1,7.07.39,10,1.89l-.75.54c-.18-1.41-.48-5.79,1.34-6.13s5,1.3,6.3,2.62l-.86.33c0-.41,0-.83,0-1.27,0-1.24.08-2.95,1.64-3.17a5.6,5.6,0,0,1,3.41.9,13.72,13.72,0,0,1,2.2,1.57l-.57-.05a4.62,4.62,0,0,1,4.75.38,3.94,3.94,0,0,1,1.17,1.2l-.89.19.14-1.26a3.87,3.87,0,0,1,.4-1.39,2,2,0,0,1,2.08-1.06c1.55.43,2.56,2.06,3.28,3.39a4.36,4.36,0,0,1,.36.89,1.21,1.21,0,0,1,0,.28c0,.16-.06.26-.07.31l-.76-.44a2.8,2.8,0,0,1,3.26-.26,3.15,3.15,0,0,1,.84.74l-.8.42a3.9,3.9,0,0,1,1.13-4l.29.81a6.69,6.69,0,0,1-2.64-.53c-.92-.38-1.85-1.43-1.34-2.54l.5.62c-1.86.32-5.41.16-5.81-2.1l.54.38a8,8,0,0,1-6.6-2,2.92,2.92,0,0,1-1.06-2.32l.36.49a8,8,0,0,1-4.77-2.53c-.89-1-1-2.58.5-3.22l0,.74a5.49,5.49,0,0,1-2.4-2.25c-.64-1.37.23-2.51,1.67-2.75l-.19.7a7.46,7.46,0,0,1-2.14-3.07c-.48-1.25-.41-3.17,1.25-3.48l-.18.67a6.68,6.68,0,0,1-2.25-4.13c-.13-2.33,1.93-2.83,3.72-1.84l-.51.5c-.9-1.93-1.47-5.9,1.33-6.36,2.14-.27,4.92,1.54,6.09,3.27l-.55,0c.9-1,1.76-2.61,3.29-2.7,2.45.05,4.34,3.06,4.3,5.31a1.08,1.08,0,0,1,0,.16l-.43-.33a4.41,4.41,0,0,1,1.2-.24,4.46,4.46,0,0,1,3.37,1.21h-.43a7.54,7.54,0,0,1,5.18-1.51l-.19.06.17-.12.06.53c-1-.37-2.11-1.47-1.25-2.75a4.94,4.94,0,0,1,2.68-1.67l.1.58a7.38,7.38,0,0,1-2.79-.4c-1-.32-2-1.23-1.58-2.33l.29.37a5.4,5.4,0,0,1-4-1.31,2.48,2.48,0,0,1-.92-1.63,1.17,1.17,0,0,1,.68-1,13.34,13.34,0,0,1,4.09-.86l0,.49a4.42,4.42,0,0,1-.61-.18l-.58-.2a7.38,7.38,0,0,1-3.26-1.79,1.88,1.88,0,0,1-.43-2.47,3.28,3.28,0,0,1,2.37-.94l0,.45a7.48,7.48,0,0,1-3.9-2.19,4.29,4.29,0,0,1-.85-1.27,1.32,1.32,0,0,1,.25-1.59,2.65,2.65,0,0,1,1.52-.4,15.32,15.32,0,0,1,3,.31l-.12.37a4.58,4.58,0,0,1-.69-.37c-2-1.25-3.65-5-2.68-7.06.66-.86,2.72-.5,3.64-.25l-.2.23a11.92,11.92,0,0,1-1-3.3,3.37,3.37,0,0,1,.25-2.19c1.5-1.91,5.35-3.3,7.53-1.93l-.2.13a4.75,4.75,0,0,1-.09-2.69,1.58,1.58,0,0,1,1.19-.71,10.19,10.19,0,0,1,6.21,2.26l-.17.07c0-1,0-2.53,1.34-2.41a6.1,6.1,0,0,1,3.4,2.15,5.87,5.87,0,0,0,.67.72l-.1.07c0-.24-.07-.49-.1-.74a5,5,0,0,1,.09-2.25,1.13,1.13,0,0,1,.46-.63c.79-.35,1.48.47,1.83,1.07l-.09,0a8.37,8.37,0,0,1-.48-1.83,6.23,6.23,0,0,1,0-1.88,1.19,1.19,0,0,1,.64-.84,1,1,0,0,1,.83,0,6.93,6.93,0,0,1,1.47,1.18l0,0c-1-2.63,2.76-4.2,4.39-2.09l-.25.28Z" transform="translate(0.91 1.4)"/><path class="cls-2" d="M677.86,358.11c.21.14,0,.45-.11.6a7.81,7.81,0,0,1-.73-.5.33.33,0,0,1-.12-.32l.42-2.65.63,2.1a1.6,1.6,0,0,1-.09.77Zm0,0a.81.81,0,0,1-.85,0l1-.54a.63.63,0,0,1,.07.3.66.66,0,0,1-.09.33l-.66-.34c0,.18.28.29.48.26Z" transform="translate(0.91 1.4)"/><path class="cls-4" d="M738.41,296l-.07-.74A28.83,28.83,0,0,0,732.18,281l0,0v-.06c0-.12-.18-1.16.35-1.57a1,1,0,0,1,1.11,0,8.34,8.34,0,0,1,2.83,2.88,2.94,2.94,0,0,1,1.16-1.81,1.09,1.09,0,0,1,1.26.1,2.39,2.39,0,0,1,.58,2.57.86.86,0,0,0,0,.65c.12.22.43.31.74.4s.87.26.81.77c-1,7.92-2.17,10.31-2.21,10.41Z" transform="translate(0.91 1.4)"/><path class="cls-2" d="M757.14,469.13H691.73l1.53-1c.16-.1,16.38-10.43,18.75-18.11.61-2,.5-6.27-.3-10.89-.89-5.12-2.11-8-2.87-8.4-11.62-7-13.21-16.46-14-21a10.89,10.89,0,0,0-.55-2.4l-.8-1.54,1.52.84a5.14,5.14,0,0,1,1.55,2.17c.62,1.19,1.31,2.54,2.17,2.54a12.42,12.42,0,0,0,2-.15l.23,0,.18.14.6.5.36.32-.29.39c-1.06,1.41-1.09,3.18-.07,5.25a19.82,19.82,0,0,0,7.53,7.52,37.83,37.83,0,0,1-.65-10.89c.35-2.55,1.14-3.48,1.57-3.8a.82.82,0,0,1,.87-.17.59.59,0,0,1,.31.52,1.58,1.58,0,0,1,0,.19c-.2,3.43.74,9.7,1.57,14.35.28,1.57,2.22,5.85,3.62,8.75a11.92,11.92,0,0,0-1.07-4.24c-1.63-3.47.72-11.5.82-11.84l.81-2.71.22,2.82c.21,2.75.79,7.44,1.44,8.35,1.16,1.63,1.8,5.23,1.52,8.58a10.54,10.54,0,0,0,1,5.14,3.4,3.4,0,0,1,1.23-2.15,2.11,2.11,0,0,0,.72-2.53c-.7-3.2-3.54-17.56-3.57-17.7l-.14-.74.74.12c.16,0,4,.69,3.85,3.61a33.94,33.94,0,0,0,1.58,10.31c.62,2.32,1.11,4.16.86,5.46-.91,4.79-.87,7.34-.66,8.19.43-.68,1.29-2.88,2.21-8.24-.23-1.4-.52-3.75,0-4.42a.8.8,0,0,1,.49-.3c.61-.08.89.59,1.36,1.71.12.28.29.67.44,1a18.59,18.59,0,0,0,.24-2.83,31.91,31.91,0,0,0-.72-5.5c-.29-1.63-.57-3.17-.66-4.32-.48-6.41.26-10.2,2.21-11.27a3.16,3.16,0,0,1,3.19.38l.43.31-.32.42s-3.22,4.28-1.64,8.16a25.47,25.47,0,0,1,2,9.67c0,.42,0,.78,0,1.09a89.32,89.32,0,0,0,6-6.78c1.8-2.13,3.65-4.32,5-5.75-.18-.29-.6-.95-1.66-2.42l-.1-.15c-.14-.19-.55-.78-.2-1.26s1.45-.28,3.14.24a8.88,8.88,0,0,0,2.81.59c.28-.23.44-.18,2.47.53.55.19,1.34.47,1.72.58,1.19-1.35,2.24-1.82,3.13-1.38a1.94,1.94,0,0,1,1,1.65c-.1.45-.64.79-2.89,2.16-4,2.44-11.41,7-14.52,12.43a38,38,0,0,0-5.28,19c0,3.32,3.33,7.47,9.61,12a83.16,83.16,0,0,0,9.74,5.95Zm-61.86-1.05h57.56a81.12,81.12,0,0,1-8-5.05c-6.66-4.79-10-9.1-10.05-12.83a39,39,0,0,1,5.42-19.54c3.24-5.7,10.82-10.32,14.89-12.8,1-.59,2-1.21,2.34-1.5a.88.88,0,0,0-.48-.52c-.2,0-.81,0-2,1.37h0c-.29.35-.52.27-2.68-.48-.59-.21-1.38-.48-1.7-.57-.66.3-1.82,0-3.54-.54-.52-.16-1.23-.38-1.7-.48l0,0c.21.3.7,1,1.13,1.61.78,1.16,1,1.54.66,1.91-1.33,1.39-3.29,3.7-5.18,5.94-5.38,6.39-6.54,7.56-7.3,7.38a.62.62,0,0,1-.48-.48,9.13,9.13,0,0,1-.16-1.85,24.44,24.44,0,0,0-1.95-9.31c-1.49-3.65.57-7.38,1.43-8.7a1.82,1.82,0,0,0-1.62,0c-.88.48-2.26,2.46-1.66,10.27.08,1.1.35,2.61.64,4.21a32.75,32.75,0,0,1,.74,5.73c-.13,3.44-.44,4.1-1.07,4.21s-1.1-.76-1.62-2l-.11-.26a21.56,21.56,0,0,0,.3,2.77v.18c-.69,4-1.78,8.89-3.08,9.36a.75.75,0,0,1-.77-.14c-1.25-1.07-.14-7.51.23-9.45.2-1.07-.29-2.89-.85-5A34.59,34.59,0,0,1,723,420.89c.05-1.35-1.32-2-2.22-2.33.62,3.11,2.8,14.12,3.4,16.87a3.1,3.1,0,0,1-1,3.52,2.26,2.26,0,0,0-.93,1.66c0,.39-.12.93-.54,1.13a.75.75,0,0,1-.76-.09c-1.09-.76-1.93-4.39-1.75-6.55.3-3.5-.46-6.67-1.32-7.88-.62-.86-1.06-3.61-1.33-5.84-.1.47-.2,1-.28,1.5-.52,3.1-.48,5.4.11,6.66a13.73,13.73,0,0,1,1.22,5.29A7.69,7.69,0,0,0,718,437a.64.64,0,0,1,0,.72l-.22.24-.32-.09c-.26-.07-.28-.07-1.12-1.78-.31-.61-.93-1.87-1.67-3.48a41.3,41.3,0,0,1-2.74-7,92.6,92.6,0,0,1-1.61-13.47c-.66,1.37-1.45,4.88.1,13.39a.68.68,0,0,1-.38.79c-.19.09-.79.37-3.21-1.42a23.32,23.32,0,0,1-4.25-4c-2.63-3.27-3.28-6.32-1.85-8.63l0,0a13.14,13.14,0,0,1-1.89.13c-1.31,0-2.13-1.27-2.82-2.57.81,4.81,2.43,13.45,13.43,20,1.86,1.11,3,7.27,3.37,9.13.66,3.79,1.07,8.77.27,11.37-1,3.4-4.61,7.58-10.58,12.44C699.61,465.09,696.88,467,695.28,468.08Zm62.26-51.83Zm-6.73-.22h0Zm-5.68-1.25Z" transform="translate(0.91 1.4)"/><rect class="cls-2" x="669.59" y="484.2" width="112.09" height="1.05"/><rect class="cls-2" x="669.59" y="558.03" width="112.09" height="1.05"/><path class="cls-2" d="M669.13,373.73c-1.61-.3-3.46-.53-4.49,1,0,.06,0,.07,0,0s0,0,0,0l0,.05a6.84,6.84,0,0,0,1.5.61,7.14,7.14,0,0,0,2,.37,6.12,6.12,0,0,0,1.41-.07,4.2,4.2,0,0,1-1.38.48,6.88,6.88,0,0,1-3.66-.5c-1.73-.79-.09-2.24,1-2.62a4.64,4.64,0,0,1,3.6.67Z" transform="translate(0.91 1.4)"/><path class="cls-2" d="M683.75,392.33c-1.5.64-3.17,1.47-3.2,3.3,0,.07,0,.07,0,.05h0a1,1,0,0,0,.34,0,9.26,9.26,0,0,0,3.19-1.11,6.43,6.43,0,0,0,1.14-.84,4.18,4.18,0,0,1-.89,1.17,6.82,6.82,0,0,1-3.32,1.59c-1.88.3-1.32-1.81-.62-2.73a4.64,4.64,0,0,1,3.37-1.43Z" transform="translate(0.91 1.4)"/><path class="cls-2" d="M666.88,363.85a10.61,10.61,0,0,0-3.24-2.29,3.89,3.89,0,0,0-2.73,0c-.18.05-.47.16-.53.29a1,1,0,0,0,.24.58,11.1,11.1,0,0,0,5.39,4.21c-2.49-.15-4.6-1.84-6.07-3.75-1.15-1.63.38-2.19,1.8-2.32a3.75,3.75,0,0,1,2.17.43,7.75,7.75,0,0,1,3,2.88Z" transform="translate(0.91 1.4)"/><path class="cls-2" d="M669.38,333.59c-1.1-1.21-2.54-2.53-4.28-2-.14,0-.35.09-.4.18a.78.78,0,0,0,.14.44,8.38,8.38,0,0,0,3.75,3.39,6.46,6.46,0,0,1-4.28-3.08c-.77-1.26.41-1.6,1.45-1.62a2.76,2.76,0,0,1,1.58.43,5.61,5.61,0,0,1,2,2.28Z" transform="translate(0.91 1.4)"/><path class="cls-2" d="M782.37,322.41a5.76,5.76,0,0,1,.33-3,2.76,2.76,0,0,1,1-1.27c.86-.58,2-1,2.12.47a6.44,6.44,0,0,1-1.68,5,8.2,8.2,0,0,0,1.07-4.94.82.82,0,0,0-.13-.44.74.74,0,0,0-.44.09,2.79,2.79,0,0,0-1.53,1.3,8.1,8.1,0,0,0-.77,2.83Z" transform="translate(0.91 1.4)"/><path class="cls-2" d="M784.22,364.17a4.63,4.63,0,0,1,3.6-.67c1.09.38,2.73,1.83,1,2.62a6.89,6.89,0,0,1-3.66.51,4,4,0,0,1-1.38-.49,6.72,6.72,0,0,0,1.41.08,7.53,7.53,0,0,0,2-.38,6.36,6.36,0,0,0,1.5-.6l0-.05h0s0,0,0,0c-1-1.51-2.89-1.28-4.49-1Z" transform="translate(0.91 1.4)"/><path class="cls-2" d="M782.88,380.89a4.66,4.66,0,0,1,3.38,1.43c.69.91,1.26,3-.62,2.73a6.78,6.78,0,0,1-3.33-1.6,4.14,4.14,0,0,1-.88-1.16,6,6,0,0,0,1.13.83,9.38,9.38,0,0,0,3.2,1.11.91.91,0,0,0,.33,0h0s0,0,0-.05c0-1.82-1.7-2.66-3.21-3.29Z" transform="translate(0.91 1.4)"/><path class="cls-2" d="M765.72,299.14a6,6,0,0,1,2.07-2.21,3.16,3.16,0,0,1,2.72-.18c.88.41.13,1.4-.27,1.89a6.24,6.24,0,0,1-3.74,2.49,7.85,7.85,0,0,0,3.84-3.33c.12-.2.21-.44.16-.53-.18-.28-.85-.3-1.2-.34-1.49-.09-2.67,1.16-3.58,2.21Z" transform="translate(0.91 1.4)"/><path class="cls-2" d="M687.43,298.3c-.85-.91-2.66-2.9-4-2.05-.47.26-.91.61-.79,1.06a3.82,3.82,0,0,0,.82,1.34c1,1.25,2.28,2.59,4,2.82-1.77,0-3.18-1.33-4.27-2.57a3.92,3.92,0,0,1-.93-1.51c-.17-.87.74-1.43,1.44-1.67,1.54-.35,3,1.45,3.76,2.58Z" transform="translate(0.91 1.4)"/><circle class="cls-2" cx="714.14" cy="288.06" r="1.63"/><circle class="cls-2" cx="702.72" cy="347.22" r="0.94"/><circle class="cls-2" cx="739.25" cy="346.53" r="0.94"/></svg>